<!--?xml version="1.0" encoding="utf-8"?-->
<!-- Generator: Adobe Illustrator 24.0.1, SVG Export Plug-In . SVG Version: 6.00 Build 0)  -->
<svg version="1.1" id="圖層_1" xmlns="http://www.w3.org/2000/svg" xmlns:xlink="http://www.w3.org/1999/xlink" x="0px" y="0px" viewBox="0 0 100.2 17.1" style="" xml:space="preserve" class="">
<style type="text/css">
	.st0{enable-background:new    ;}
	.st1{fill:none;stroke:#000000;stroke-width:0.25;stroke-miterlimit:10;}
</style>
<g class="st0">
	<path class="st1 YWUERhyl_0" d="M6.5,6.7C6.4,6.6,6.3,6.4,6.3,6.2c0-0.2,0-0.3-0.1-0.4C6,6.1,5.7,6.6,5.4,7C5.1,7.4,4.7,7.8,4.2,8.2
		C4,8.3,3.7,8.3,3.5,8.2C3.2,8.1,3.1,7.9,3.1,7.6C3.1,7,3.3,6.5,3.5,6C2.8,6.4,2.1,6.9,1.2,7.2c-0.2,0-0.5,0-0.5-0.4
		C2,6.3,3.1,5.7,4.2,5c0.1,0,0.3,0,0.4,0.2c0,0.2-0.2,0.4-0.3,0.5L4.2,5.8c-0.3,0.5-0.5,1-0.6,1.5c0,0.2,0,0.3,0.1,0.4
		c0.2,0,0.3,0,0.4-0.2c0.4-0.3,0.7-0.7,1-1c0.4-0.5,0.7-1,1-1.6c0.1-0.1,0.1-0.2,0.2-0.2c0.2,0,0.3,0.2,0.3,0.3c0,0.5,0,1.1,0.1,1.6
		c0,0.1-0.1,0.2-0.1,0.2C6.6,6.8,6.5,6.8,6.5,6.7z M9.2,6.9c-0.5,0.5-1,1-1.5,1.4c0.2-0.1,0.5-0.1,0.7-0.2C8.8,8.1,9.1,8,9.4,8
		c0.2,0.2,0,0.4-0.2,0.5C8.1,8.7,7,9,5.8,9.3c-0.3,1.3-0.7,2.6-1.3,3.7c-0.3,0.4-0.7,1-1.3,1.1c-0.1,0-0.2-0.1-0.1-0.2
		c0.8-0.7,1.3-1.6,1.6-2.5c0.2-0.6,0.4-1.3,0.5-1.9c-1.3,0.4-2.4,0.8-3.7,1.3c-0.2,0.1-0.4,0.1-0.5,0c-0.1,0-0.3-0.2-0.2-0.3
		C2.3,10,3.8,9.4,5.4,9c0.1-0.5,0.2-1,0.5-1.4c0.1-0.2,0.3-0.3,0.5-0.2C6.6,7.5,6.8,7.5,7,7.7c0.1,0.1,0,0.3-0.1,0.2
		c-0.1,0-0.2,0-0.3,0c-0.1,0-0.1,0-0.2,0c-0.1,0-0.1,0-0.1,0.1C6.1,8.2,6,8.5,5.9,8.8c0.3,0,0.5-0.1,0.8-0.2c0.7-0.5,1.4-1.2,2-1.8
		c0.5-0.6,1.1-1.2,1.5-1.8C10.1,4.9,9.9,5,9.8,5L9.3,5.3C9,5.3,8.7,5.4,8.4,5.3C8.3,5.3,8.2,5.1,8.2,5c0-0.4,0.2-0.7,0.4-1
		C8.7,3.7,8.9,3.4,9,3.2c-0.2,0-0.4,0-0.5,0C8.3,3.1,8.1,3,7.9,2.8c-0.1-0.3,0-0.6,0-0.9l0-0.5c0-0.2,0-0.3,0-0.5
		C8.1,0.7,8.4,0.8,8.5,1c0,0.3,0,0.5,0,0.8c0,0.2,0,0.5,0,0.7c0.1,0.1,0.2,0.2,0.3,0.2c0.1,0,0.2,0,0.4,0c0.1,0,0.3,0,0.4,0
		c0.2,0,0.3,0.2,0.3,0.3C9.6,3.3,9.4,3.5,9.2,3.9C9,4.1,8.8,4.4,8.7,4.7c0,0,0.1,0.1,0.1,0.1c0.3,0,0.5-0.1,0.8-0.2
		c0.3-0.1,0.5-0.2,0.8-0.3c0.2,0,0.3,0,0.4,0.1c0.2,0.3,0.1,0.6,0,0.8C10.2,5.7,9.8,6.4,9.2,6.9z M4.7,1.3C4.3,1.2,3.8,1.1,3.4,1
		L3.3,1.7c0,0.2-0.1,0.4-0.1,0.6c0.3,0,0.6,0,1,0c0.4,0,0.7,0.1,1,0.2c0.1,0.1,0.1,0.2,0.1,0.3c0,0,0,0.1,0,0.1
		C4.9,3.3,4.6,3.5,4.3,3.7h0c0.2,0,0.4-0.1,0.6,0c0.2,0,0.3,0.2,0.3,0.3C4.9,4.2,4.7,4.2,4.4,4.2l-0.2,0C3.8,4.3,3.4,4.4,3.1,4.4
		c0,0.3,0,0.5-0.1,0.8C3,5.4,2.8,5.4,2.8,5.3C2.6,5.1,2.6,4.8,2.6,4.6C2.6,3.3,2.6,2.1,2.9,1c-0.1,0-0.2,0-0.2-0.1
		c-0.1,0-0.2,0-0.3-0.1C2.2,0.7,2.4,0.5,2.5,0.5c0.3-0.1,0.6-0.1,0.9,0C4.2,0.7,4.9,0.7,5.6,1c0.1,0.1,0.1,0.2,0,0.3
		c-0.2,0.1-0.3,0.1-0.5,0C5,1.3,4.9,1.3,4.7,1.3z M3.1,3.9c0.5-0.2,1-0.5,1.5-0.9c0,0,0-0.1,0-0.1c-0.5-0.1-1-0.1-1.5-0.1
		C3.1,3.1,3.1,3.5,3.1,3.9z M7.3,13.3c-0.1,0.1-0.3,0.3-0.4,0.5S6.5,14,6.3,14.1c-0.4,0.2-0.9,0.4-1.4,0.4c-0.2,0-0.3-0.1-0.3-0.2
		c0-0.1,0-0.2,0.1-0.2c0.4,0,0.7-0.1,1.1-0.3c0.4-0.2,0.8-0.6,1.1-1c-0.1-0.2-0.3-0.4-0.5-0.6L6,11.8c-0.1-0.1,0.2-0.2,0.2-0.2
		c0.1,0,0.3,0.1,0.4,0.3L7,12.1c0.1,0.1,0.2,0.2,0.2,0.3c0.5-0.9,0.9-1.9,1.1-3c0-0.1,0.1-0.1,0.2-0.1c0.1,0,0.2,0.1,0.2,0.2
		c0.1,0.8-0.2,1.4-0.5,2.1C8,12,7.8,12.4,7.6,12.8c0.3,0.3,0.7,0.6,1,0.8C9,13.8,9.4,14,9.8,14c0.3,0,0.6,0,1-0.2
		c0.1,0,0.2,0.2,0.1,0.4c-0.2,0.3-0.6,0.4-1,0.4c-0.6,0-1.2-0.3-1.6-0.5C8,13.8,7.6,13.5,7.3,13.3z M11.3,9.3
		c-0.1,0-0.2-0.1-0.2-0.2c-0.1-0.6-0.2-1.3-0.8-1.6c0,0-0.1,0-0.2,0l-0.2,0c-0.2,0-0.3-0.2-0.1-0.3C9.9,7,10.1,7,10.3,7
		c0.2,0,0.4,0.1,0.6,0.2c0.4,0.5,0.6,1.1,0.6,1.8c0,0,0,0.1,0,0.1C11.4,9.2,11.4,9.3,11.3,9.3z"></path>
	<path class="st1 YWUERhyl_1" d="M16.4,4.7c0-0.1,0.1-0.2,0-0.3c-0.4-0.1-0.6,0.1-0.9,0.3c-0.5,0.4-1.1,1.1-1.3,1.5c0,0.1-0.2,0.1-0.3,0
		c-0.1,0-0.1-0.1-0.1-0.2c0.1-0.3,0.4-0.7,0.7-1c0.4-0.4,0.8-0.7,1.1-0.9C16,3.9,16.5,3.9,16.8,4C17,4.1,17.1,4.3,17,4.5
		c-0.1,0.2-0.2,0.4-0.6,0.6C16.4,5,16.4,4.8,16.4,4.7z M23.5,10.4c-0.4,0.7-1,1.4-1.8,1.8c-0.3,0.1-0.8,0.2-1.2,0.2
		c-0.4,0-0.8-0.1-1.1-0.4c-0.3-0.3-0.7-0.6-0.7-1.1c0-0.2,0.2-0.2,0.2-0.1c0.2,0.5,0.6,0.8,1,1c0.5,0.2,1,0.2,1.5-0.1
		c0.5-0.3,1-0.7,1.3-1.2c0.6-0.8,0.9-1.8,1.1-2.6C24,7,24.1,5.9,24,4.9c0-0.2-0.2-0.3-0.3-0.4c-0.3-0.1-0.6,0-0.9,0.1
		c-0.4,0.1-0.7,0.3-1,0.4c-0.2,0.1-0.3,0.2-0.5,0.3c-0.3,0.1-0.5,0.1-0.7-0.1c-0.2-0.1-0.3-0.3-0.3-0.6c0-0.3,0-0.9,0-1.5
		c0-0.1-0.1-0.1-0.1-0.1c-0.6,0.7-1.1,1.3-1.5,1.9c-0.4,0.6-0.7,1.2-1,1.8c0.4,0.4,0.5,0.8,0.6,1.2c0,0.4,0,1.1-0.1,1.6
		c-0.1,0.4-0.4,0.8-0.7,0.9c-0.2,0.1-0.6,0.1-0.8-0.1c-0.2-0.2-0.2-0.5-0.2-0.9c0-0.8,0.4-1.6,0.7-2.6c-0.2,0-0.4,0-0.6,0.2
		c-0.4,0.2-0.5,0.6-0.6,1c-0.1,0.5-0.1,1.2-0.1,1.6c0,0.2,0,0.4,0,0.7c-0.1,0.1-0.2,0.1-0.4,0c-0.3-0.3-0.5-1-0.8-1.6
		c-0.1-0.3-0.2-1-0.2-1.5c0-0.3,0-0.5,0.1-0.7c0.1-0.2,0.3-0.4,0.5-0.6c0.2-0.1,0.2-0.1,0.3,0c0,0.1,0,0.2,0,0.3
		c-0.3,0.3-0.4,0.6-0.4,1c0,0.3,0.1,0.7,0.2,1c0,0.3,0.2,0.7,0.3,1.1c0-0.5,0.1-0.9,0.1-1.2c0.1-0.5,0.2-0.9,0.4-1.2
		c0.3-0.3,0.7-0.5,1.3-0.4c0.4-0.7,0.7-1.4,1.2-2c0.4-0.6,0.8-1.1,1.2-1.7c0.1-0.2,0.3-0.3,0.5-0.3c0.2,0,0.4,0,0.5,0.2
		c0.1,0.1,0.1,0.4,0.1,0.6c0,0.4,0,1,0,1.3c0,0.1,0.2,0.2,0.3,0.2c0.2-0.1,0.4-0.2,0.6-0.3c0.3-0.2,0.6-0.4,0.9-0.5
		C22.8,4,23,4,23.4,3.9c0.3,0,0.6,0,0.8,0.2c0.3,0.3,0.4,0.7,0.4,1.1c0,0.4,0,0.9,0,1.3C24.4,7.9,24.1,9.2,23.5,10.4z M16.9,10
		c0.1,0.2,0.2,0.2,0.3,0.2c0.2,0,0.3-0.2,0.4-0.4c0.1-0.3,0.2-0.7,0.2-1.2c0-0.4,0-0.9-0.3-1.4C17.1,8.3,16.8,9,16.9,10z M21.9,9.2
		c-0.4-0.3-0.6-0.8-1-1.2c-0.2-0.3-0.5-0.6-1-0.7c0-0.1,0-0.2,0.2-0.3c0.3,0,0.4,0,0.6,0.1c0.1,0.1,0.3,0.2,0.4,0.4
		c0.2,0.2,0.3,0.4,0.5,0.7C21.8,8.4,22,8.7,22.3,9c0,0.1,0,0.2,0,0.2C22.1,9.2,22,9.2,21.9,9.2z"></path>
	<path class="st1 YWUERhyl_2" d="M36.4,13.7c-0.4,0.1-0.8,0.1-1.2,0.1c-0.5,0-1-0.1-1.6-0.2c-0.8-0.2-1.5-0.5-2.2-0.9c-0.7-0.4-1.3-0.8-2.1-1.2
		c-0.3-0.1-0.7-0.3-1.1-0.3c-0.3,0-0.6,0-0.8,0.2c-0.1,0-0.3-0.1-0.2-0.2c0.3-0.4,0.7-0.4,1.1-0.4c0.4,0,0.8,0.1,1,0.2
		c0.3-0.4,0.6-1,0.7-1.5c0.1-0.4,0-0.7-0.2-1.1c-0.1-0.3-0.4-0.4-0.6-0.6c-0.2-0.2-0.5-0.3-0.7-0.5c-0.1-0.1-0.1-0.3-0.1-0.4
		c0.1-0.2,0.3-0.4,0.5-0.6c0.2-0.2,0.4-0.4,0.6-0.5c0.1,0,0.2,0.1,0.1,0.2c-0.1,0.1-0.3,0.3-0.4,0.4C29.2,6.5,29,6.7,29,6.8
		c0,0.1,0,0.2,0.1,0.2c0.4,0.2,0.9,0.6,1.2,1c0.2,0.3,0.4,0.7,0.4,1.1c-0.1,0.8-0.4,1.4-0.9,2c0.6,0.3,1.2,0.7,1.7,1
		c0.6,0.3,1.1,0.6,1.9,0.8c0.8,0.2,1.5,0.3,2.1,0.3c0.6,0,1.3-0.1,2-0.4c0.6-0.2,1.3-0.5,1.9-0.8c0,0,0.2,0,0.3,0.1
		c0,0.2-0.1,0.3-0.3,0.4C38.5,13.1,37.5,13.5,36.4,13.7z M30.1,4c-0.3-0.2-0.6-0.4-0.9-0.5c-0.3-0.1-0.6-0.3-1-0.4l0-0.1l0-0.1
		c0-0.1,0-0.1,0-0.2c0-0.1,0.1-0.1,0.2-0.1c0.1,0,0.1,0,0.2,0c0.7,0.2,1.3,0.4,1.8,1c0.1,0.1,0.2,0.2,0.2,0.4
		c0.1,0.1,0.1,0.3-0.1,0.4c-0.1,0-0.2-0.1-0.2-0.2C30.2,4.1,30.2,4.1,30.1,4z M33.4,7c-0.5,0.2-1,0.5-1.5,0.7c-0.1,0-0.3,0-0.4-0.2
		c0-0.2,0.2-0.3,0.3-0.4c0.1,0,0.1,0,0.1-0.1c0.9-0.4,1.8-0.9,2.7-1.4c0-0.4,0-1.4,0-1.8c-0.2,0-0.4,0.1-0.5,0.2
		c-0.2,0.1-0.4,0.2-0.6,0.2c-0.4,0.1-0.7,0.1-1.1-0.2c-0.1-0.1-0.1-0.3-0.2-0.4s0-0.3,0-0.4l0.1-0.7c0-0.2,0-0.4,0-0.7
		c0.1-0.1,0.3-0.1,0.4,0c0.3,0.3,0.2,0.7,0.1,1c-0.1,0.2-0.1,0.4-0.1,0.7c0,0.1,0.1,0.2,0.2,0.3c0.3,0,0.5,0,0.8-0.1
		c0.2,0,0.3-0.1,0.5-0.2c0.2-0.1,0.3-0.1,0.5-0.2c0-0.3,0-0.7,0-1c0-0.4,0-0.7,0.2-1c0.1-0.1,0.2-0.1,0.3-0.1c0,0,0.1,0,0.1,0
		c0,0,0.1,0,0.1,0c0.1,0,0.2,0.1,0.3,0.2c0.1,0.1-0.1,0.2-0.2,0.2c-0.1,0-0.2,0.1-0.2,0.1c0,0.4-0.1,0.9,0,1.3
		c0.2,0,0.4-0.1,0.6-0.2c0.2-0.1,0.4-0.1,0.7-0.1c0.1,0,0.2,0.2,0.2,0.3c0,0.2,0,0.3-0.2,0.4c-0.1-0.1-0.2-0.1-0.4-0.1
		c-0.1,0-0.3,0.1-0.4,0.1c-0.2,0.1-0.4,0.1-0.6,0.2c0,0.5,0,1.2,0,1.7c1-0.5,1.9-1.2,2.8-1.9c0.1,0,0.2,0.1,0.2,0.2
		c-0.4,0.6-2.5,1.9-3.1,2.3C34.6,6.3,33.9,6.7,33.4,7z M36.7,10.9c-0.5,0.2-1,0.4-1.5,0.6c-0.2,0-0.5-0.3-0.4-0.5
		c0.4-0.3,0.7-0.6,1-1c0.2-0.3,0.4-0.7,0.6-1.1c0.1-0.2,0.1-0.4,0.1-0.6c-0.1-0.1-0.3-0.2-0.5-0.1c-0.3,0.1-0.9,0.4-1.2,0.6
		c-0.2,0.1-0.3,0.3-0.4,0.5c-0.1,0.3-0.1,0.5-0.1,0.8c0,0.2,0.1,0.4,0,0.6c-0.1,0.2-0.3,0.2-0.5,0.1c-0.7-0.7-1.2-1.5-1.8-2.2
		c0,0,0-0.2,0.1-0.2c0.3-0.1,0.5,0,0.7,0.3c0.4,0.4,0.7,0.9,1,1.3c0-0.2,0-0.6,0.1-0.9c0.1-0.3,0.5-0.6,1-0.8
		c0.4-0.2,0.9-0.3,1.2-0.4c0.3,0,0.7,0,0.8,0.4c0.1,0.3,0,0.6-0.1,0.9c-0.3,0.6-0.5,1.2-1,1.6c0.3-0.1,0.6-0.2,0.7-0.3
		c0.3-0.1,0.5-0.1,0.9,0c0.1,0,0.1,0.2,0,0.3c-0.1,0.1-0.3,0.2-0.5,0.2C37,10.8,36.9,10.9,36.7,10.9z"></path>
	<path class="st1 YWUERhyl_3" d="M50.3,10.3c-0.6,0.2-1.2,0.3-1.8,0.3c-0.1,0-0.2-0.1-0.1-0.2l1-0.2c0.3-0.1,0.6-0.2,0.9-0.3
		c0.6-0.3,1.3-0.7,1.7-1.3c0.3-0.3,0.4-0.7,0.4-1.2c0-1.5-0.1-2.9-0.1-4.4c-0.6,0.8-1.3,1.6-2,2.3c-0.1,0.1-0.3,0.1-0.4,0
		c-0.2-0.1-0.2-0.2-0.2-0.4l0.1-1.2c0-0.1-0.1-0.1-0.1,0C49,4.3,48.5,4.9,48,5.5c-0.5,0.6-0.9,1.2-1.4,1.9c-0.1,0.1-0.3,0.1-0.4,0
		c-0.1,0-0.2-0.1-0.3-0.3c-0.1-0.8-0.1-1.7,0-2.4c-0.5,0.3-1.1,0.6-1.7,0.9c0,0.4,0,0.9,0.1,1.4c0,0.1,0,0.1,0.1,0.1
		c0.4-0.2,0.8-0.6,1-1c0.1-0.1,0.2,0,0.2,0.1c-0.2,0.6-0.5,1.1-1.1,1.4c-0.1,0.1-0.3,0-0.4,0c-0.1-0.1-0.2-0.2-0.3-0.4
		c-0.1-0.4-0.1-0.9-0.1-1.4c-0.4,0.1-0.9,0.4-1.3,0.5c-0.1,0-0.3,0.1-0.5,0C41.7,6.2,41.8,6,42,5.9c0.6-0.1,1.2-0.4,1.7-0.7
		c0-0.5,0.1-1,0.4-1.4c0.2-0.3,0.8-0.7,1.2-0.7c0.2,0,0.1,0.2,0,0.2C45,3.5,44.8,3.7,44.6,4c-0.2,0.3-0.3,0.7-0.3,1
		c0.5-0.2,1.1-0.5,1.7-0.9c0.1-0.3,0.1-0.6,0.2-0.9c0.1-0.1,0.3-0.2,0.4-0.1c0,0.1,0,0.2,0,0.3c0,0.1-0.1,0.3-0.1,0.4
		c0.3-0.1,0.7-0.4,1-0.6c0.1,0,0.1,0,0.2,0c0,0.1,0,0.2,0,0.3c-0.2,0.2-0.4,0.3-0.6,0.5l-0.6,0.4c0,0.4-0.1,0.8-0.1,1.2
		c0,0.4,0,0.8,0,1.2c0,0,0.1,0,0.1,0C47,6.1,47.5,5.5,48,4.9c0.5-0.6,1-1.2,1.6-1.7c0.3-0.1,0.5,0.1,0.5,0.4c0,0.2,0,0.4,0,0.6
		c0,0.2,0,0.4,0,0.6c0.7-0.8,1.4-1.6,2.1-2.5c0.2-0.2,0.5-0.1,0.5,0.1c0,0.8,0,2.2,0,3.1c0,0.4,0,0.8,0,1.2c0,0.4,0,0.8,0,1.2
		c-0.1,0.5-0.3,1-0.7,1.4C51.5,9.7,50.9,10,50.3,10.3z M45.9,2.1c-0.6,0.2-1.2,0.4-1.9,0.5c-0.5,0.1-1.1,0.1-1.6-0.2
		c-0.1-0.1-0.1-0.2-0.1-0.3c0.1-0.2,0.2-0.2,0.4-0.1c0.1,0,0.2,0.1,0.3,0.1c0.4,0.1,0.8,0.1,1.2,0C44.6,2,45,1.9,45.4,1.8
		c0.6-0.2,1.2-0.3,1.9,0c0.2,0.1,0.3,0.4,0,0.4C46.8,2,46.3,2,45.9,2.1z M51.3,11.9L51.3,11.9c-1.7,0.3-3.3,0.7-4.8,1.2l-0.6,0.1
		c-0.2,0-0.4,0-0.6,0c-0.1,0-0.2-0.2-0.1-0.3c0.1-0.1,0.2-0.1,0.4-0.1s0.3,0,0.4-0.1c0.5-0.3,0.7-0.6,0.8-1.1
		c0.1-0.2,0.1-0.4,0.1-0.7l0.1-0.6c-0.4,0.1-0.7,0.2-1.1,0.3c-0.4,0.1-0.8,0.1-1.2,0.1c-0.2-0.1-0.3-0.2-0.3-0.3
		c0.1-0.1,0.3-0.1,0.4-0.1c0.1,0,0.3,0,0.4,0c0.6-0.1,1.2-0.3,1.8-0.4c0-0.3,0.1-0.9,0.1-1.1c0-0.1,0-0.4,0.1-0.5
		c0.1-0.1,0.3-0.2,0.4-0.2c0.3,0,0.6,0.1,0.9,0.3c0.3,0.1,0.6,0.2,0.9,0.4c0.1,0.1,0.2,0.2,0.2,0.4c0,0.1-0.2,0.3-0.3,0.4
		c-0.5,0.3-1.2,0.6-1.8,0.8c-0.1,0.4-0.1,0.9-0.2,1.3c-0.1,0.4-0.2,0.8-0.5,1.2c1-0.3,1.9-0.6,2.9-0.8l1.4-0.3c0.2,0,0.3,0,0.4,0.2
		c0,0.1,0,0.2-0.1,0.2C51.3,11.9,51.3,11.9,51.3,11.9z M47.6,8.5c0,0.2,0,0.4,0,0.5c0,0.1,0,0.3,0,0.4c0.5-0.2,0.9-0.4,1.4-0.7
		c-0.3-0.1-0.7-0.3-1-0.4C47.8,8.4,47.7,8.4,47.6,8.5z"></path>
	<path class="st1 YWUERhyl_4" d="M62.6,9.5c-0.4-0.1-0.7-0.3-0.8-0.6c-0.4-1,0-1.9,0.8-2.6c0.2-0.2,0.5-0.4,0.9-0.5c0.1,0,0.2,0,0.3,0.1
		c0.3,0,0.6,0.3,0.8,0.6C64.9,7.4,64.7,8.4,64,9C63.6,9.4,63.1,9.6,62.6,9.5z M63.5,6.3c-0.1,0.1-0.2,0.1-0.3,0.2
		C62.4,7,62,7.8,62.3,8.6c0,0.1,0.2,0.3,0.4,0.3c0.7,0.1,1.2-0.4,1.4-1.1c0.1-0.3,0.1-0.6,0-0.9c0-0.2-0.2-0.4-0.5-0.6
		C63.5,6.3,63.5,6.3,63.5,6.3z"></path>
	<path class="st1 YWUERhyl_5" d="M82.2,14.5c-0.6,0-1.1,0-1.5-0.2c-0.6-0.2-1.2-0.6-1.8-1c-0.6-0.5-1.3-0.9-1.9-1.5c-0.2-0.2-0.4-0.4-0.7-0.5
		c-0.2,0.5-0.5,0.9-0.7,1.4c-0.2,0.2-0.5,0.7-0.9,1.1c-0.2,0.3-0.5,0.5-0.7,0.5c-0.1,0-0.2,0-0.3,0c-0.1,0-0.1-0.1-0.1-0.2
		c0.6-0.5,1.2-1.1,1.6-1.7c0.3-0.6,0.6-1.2,0.8-1.8c-0.9,0.3-1.7,0.8-2.6,1.1c-0.2,0-0.4-0.2-0.3-0.3c1-0.5,2.1-1,3.1-1.4
		c0.1-0.3,0.2-0.5,0.3-0.8c0.1-0.3,0.2-0.6,0.4-0.9c0.2-0.3,0.5-0.5,0.8-0.6c0.3-0.1,0.7-0.1,1.1,0c0.4,0.1,0.8,0.1,1.1,0.3
		c0.2,0.1,0.2,0.3,0.2,0.4c-0.9,0.6-2.6,1.4-3.5,1.9c0,0.1-0.1,0.3-0.1,0.5c0.3,0.1,0.5,0.3,0.7,0.5c0.7,0.7,1.3,1.2,2.2,1.8
		c0.5,0.4,1.1,0.7,1.6,0.9c0.4,0.2,0.9,0.2,1.4,0.1c0.4-0.1,0.8-0.2,1.1-0.5c0,0,0.1,0,0.1,0c0,0,0,0.1,0,0.1
		c-0.1,0.3-0.3,0.5-0.6,0.6C82.8,14.4,82.5,14.4,82.2,14.5z M78.6,6.7c-0.5,0.3-1,0.7-1.6,1c-0.2,0-0.4,0-0.5-0.1
		c-0.2-0.2-0.3-0.4-0.3-0.6c0-0.3,0.1-0.5,0.1-0.6c-0.5,0.2-1.3,0.6-1.9,1c-0.1,0-0.2,0.1-0.4,0.1c-0.1,0-0.3,0-0.4-0.1
		c0,0-0.1-0.2,0-0.3c0.9-0.4,1.8-0.9,2.7-1.3c0.1-0.2,0.2-0.4,0.2-0.6c0.1-0.2,0.1-0.4,0.3-0.6C77,4.2,77.3,4,77.7,3.9
		c0.4-0.1,0.9,0,1.2,0.3c0.2,0.2,0.3,0.3,0.3,0.5C78.8,5,78.4,5.2,78,5.5c-0.4,0.2-0.8,0.4-1.1,0.6c-0.1,0.4-0.1,0.7-0.1,1
		c0,0.1,0.1,0.1,0.2,0.1c0.7-0.5,1.4-0.9,2.2-1.3c0.3-0.1,0.6,0,0.5,0.3c-0.1,0.2-0.3,0.2-0.5,0.3C79,6.6,78.8,6.6,78.6,6.7z
		 M74.2,4.6c0-0.1,0-0.2,0-0.2l0.2-0.1c0.4-0.2,0.8-0.3,1.2-0.5c0.3-0.2,0.6-0.4,0.8-0.7c-0.3-0.1-0.6-0.3-0.8-0.6
		c-0.3-0.4-0.6-0.8-0.8-1.2c0-0.1,0-0.2-0.1-0.3c0-0.1,0-0.2,0-0.3c0-0.1,0.2-0.1,0.3,0c0.2,0.2,0.2,0.4,0.3,0.7
		c0.2,0.4,0.4,0.8,0.7,1.1c0.2,0.2,0.4,0.4,0.7,0.4c0.7-0.6,1.2-1.4,1.7-2.2c0.1-0.1,0.4-0.2,0.4,0c0,0.2,0,0.3-0.1,0.4
		c-0.1,0.1-0.1,0.2-0.2,0.4c-0.5,0.7-1.1,1.4-1.7,2c0.4-0.1,0.7-0.2,1.1-0.3c0.3,0,0.6-0.1,0.8-0.1C79.2,3,79.2,3.2,79,3.4
		c-0.8,0.1-1.5,0.2-2.2,0.5c-0.7,0.2-1.4,0.5-2.1,0.9C74.5,4.7,74.4,4.7,74.2,4.6z M77.8,8.1c-0.4,0.2-0.5,0.5-0.7,0.8
		c-0.1,0.2-0.1,0.4-0.3,0.7c0.9-0.4,1.8-0.9,2.6-1.4c0,0,0-0.1,0-0.1C79,7.9,78.4,7.9,77.8,8.1z M77.8,4.3c-0.3,0-0.4,0.2-0.6,0.4
		c-0.1,0.2-0.2,0.5-0.3,0.7c0.5-0.3,1-0.6,1.5-0.9c0,0,0-0.1,0-0.1C78.3,4.3,78.1,4.2,77.8,4.3z"></path>
	<path class="st1 YWUERhyl_6" d="M86.7,9.6c-0.1,0.6-0.3,1.2-0.6,1.8c-0.1,0.1-0.3,0.2-0.4,0c0.2-0.4,0.3-0.9,0.4-1.3c0.1-0.5,0.1-0.9,0.2-1.4
		c0.1-1,0.3-1.9,0.6-2.8c0-0.1,0.1-0.1,0.2-0.2c0.1,0,0.2,0,0.2,0.2c-0.2,0.6-0.3,1.2-0.4,1.9C86.9,8.3,86.8,9,86.7,9.6z M92.5,3.2
		c-0.1,0-0.2-0.1-0.3-0.2c-0.1-0.1-0.2-0.1-0.2-0.2c-0.3,0.4-0.5,0.7-0.7,1.2c-0.1,0.1-0.3,0-0.3-0.1c0.1-0.5,0.4-0.9,0.7-1.4
		c-0.1-0.2-0.2-0.3-0.3-0.5l-0.8,1.6c-0.3,0.6-0.6,1.1-0.9,1.6c-0.2,0.1-0.4-0.1-0.4-0.3c0.3-0.5,0.5-1,0.4-1.6
		c0-0.1-0.2-0.1-0.3-0.1c-0.1,0-0.3,0.1-0.4,0.2c0,0.5,0,1.2,0,1.8c0,0.5-0.2,1-0.6,1.3c0,0-0.1,0.1-0.2,0.1c-0.1,0-0.1,0-0.2-0.1
		L88.1,6c0.2-0.3,0.3-0.7,0.3-1.1c0-0.4,0-0.9,0-1.3l-0.2,0.1c-0.1,0.1-0.2,0.1-0.3,0.2c-0.1-0.1-0.1-0.2,0-0.3l0.3-0.3
		c0.1-0.1,0.2-0.2,0.3-0.3c0-0.3-0.1-0.6-0.2-0.8c-0.2,0.2-0.4,0.5-0.5,0.8c-0.2,0.3-0.4,0.6-0.6,0.8c-0.2,0-0.3-0.2-0.2-0.4
		c0.6-1,1.3-2,2.1-2.9c0.1-0.1,0.3-0.1,0.4-0.1c0.2,0.1,0.2,0.2,0.1,0.3l-0.5,0.5c-0.2,0.2-0.3,0.3-0.4,0.5c0.2,0.2,0.3,0.6,0.3,0.9
		c0.2-0.1,0.5-0.2,0.8-0.1c0.3,0.1,0.3,0.4,0.4,0.6c0.4-0.7,0.7-1.4,1-2.1c0.1-0.1,0.2-0.1,0.3,0c0.1,0.2,0.3,0.5,0.5,0.8
		c0.1-0.1,0.3-0.3,0.4-0.4c0.1-0.1,0.3-0.2,0.5-0.2c0.1,0,0.3,0,0.5,0.2c0.1,0.2,0.2,0.4,0.3,0.5c0,0.2,0,0.5,0,0.8
		c-0.1,0.2-0.2,0.4-0.4,0.5C92.9,3.3,92.6,3.3,92.5,3.2z M93.4,11.6c0,0.1,0.1,0.2,0.1,0.3c0,0.1,0.1,0.3,0,0.4
		c-0.1,0.8-0.5,1.4-1.2,1.8c-0.4,0.3-1,0.4-1.5,0.1c-0.4-0.2-0.8-0.4-1.1-0.7c-0.2-0.2-0.4-0.5-0.4-0.8c0.1-0.3,0.4-0.5,0.6-0.7
		c0.9-0.4,1.7-0.7,2.6-0.9c-0.1-0.2-0.3-0.4-0.5-0.5c-0.2-0.2-0.3-0.3-0.2-0.6c0.1-0.3,0.3-0.5,0.5-0.7c0.2-0.2,0.4-0.4,0.5-0.6
		c0-0.1,0-0.2-0.1-0.2c-0.4,0-0.7,0-1.1,0.1c-0.5,0.1-0.9,0.3-1.2,0.5c-0.1,0-0.2,0-0.2,0c-0.1-0.1,0-0.3,0-0.4
		c0.2-0.2,0.5-0.3,0.7-0.4c0.3-0.1,0.7-0.2,1-0.3c0.5-0.1,1.1,0,1.5,0.2c0.8-0.3,1.5-0.6,2.1-1.1c0.1,0,0-0.2-0.1-0.3
		c-0.8-0.2-2.7-0.2-4,0c-1.1,0.1-2,0.4-3,0.7c-0.1,0.1-0.2,0.1-0.2,0c-0.1,0-0.1-0.1-0.1-0.2c0.2-0.4,0.6-0.5,1-0.6l0.4-0.1
		c0.8-0.2,1.6-0.3,2.4-0.4c1-0.1,2-0.1,2.9,0c0.1-0.2,0.2-0.4,0.2-0.6L95,5.1c-0.3,0.2-0.8,0.4-1.1,0.5c0,0-0.1,0-0.2,0
		c0,0,0-0.2,0-0.2c0.3-0.2,0.6-0.4,0.9-0.6c-0.2-0.1-0.5,0-0.6,0c-0.2,0-0.5,0-0.6-0.1C93.3,5,93.2,5.3,93,5.4
		c-0.1,0.2-0.3,0.3-0.6,0.3c-0.3,0-0.6-0.2-0.9-0.4c-0.1,0.2-0.3,0.5-0.4,0.7c-0.1,0-0.3,0-0.3-0.2c0-0.3,0.1-0.5,0.3-0.8
		c-0.1-0.1-0.4-0.3-0.5-0.5c-0.1-0.2,0-0.5,0.3-0.4c0.2,0.1,0.3,0.3,0.5,0.4C91.7,4.3,92,4,92.4,3.8c0.2-0.1,0.4-0.2,0.7-0.1
		c0.3,0.1,0.3,0.3,0.4,0.6c0.4-0.4,0.9-0.7,1.3-1.1c-0.3,0-0.8,0.1-1,0.1c-0.1-0.1-0.2-0.1-0.1-0.2c0-0.1,0.1-0.1,0.1-0.2
		c0.2-0.1,0.4-0.2,0.7-0.2c0.3,0,0.5,0,0.7,0.1c0-0.1,0-0.2,0-0.4c0-0.1,0-0.3,0-0.4c0-0.2-0.1-0.4-0.3-0.5
		c-0.2-0.1-0.4,0.1-0.5,0.2l-0.2,0.2c-0.1,0-0.2,0-0.2-0.1c0-0.2,0-0.3,0.1-0.5c0.2-0.3,0.6-0.4,1-0.3c0.1,0,0.3,0.1,0.4,0.2
		c0.2,0.3,0.3,0.7,0.3,1.1c0,0.4,0,0.8,0,1.1c-0.1,0.5-0.1,1-0.2,1.6c-0.1,0.5-0.2,1-0.4,1.4c0.3,0.1,0.7,0.2,0.9,0.5
		c0,0.2,0,0.4,0,0.5C95.8,7.7,95.4,8,95,8.2c-0.5,0.2-1.1,0.4-1.5,0.5C93.4,9,93.2,9.2,93,9.5c-0.1,0.1-0.2,0.2-0.3,0.4l-0.3,0.4
		c0.3,0.3,0.6,0.6,0.7,1c0.5-0.1,1.1-0.2,1.6-0.3c0.6-0.1,1.1-0.1,1.7,0c0.1,0,0.1,0.1,0.2,0.1c0.1,0,0.1,0.1,0.2,0.2
		c0,0.1-0.1,0.3-0.2,0.2C95.5,11.3,94.4,11.4,93.4,11.6z M90.1,12.8c-0.1,0-0.1,0.2-0.1,0.3c0.4,0.5,0.9,0.8,1.5,0.9
		c0.3,0,0.6-0.2,0.9-0.4c0.3-0.3,0.5-0.7,0.6-1c0-0.3,0-0.6-0.1-0.8C91.9,12.1,91,12.4,90.1,12.8z M91.9,5c0.1,0.1,0.3,0.2,0.5,0.3
		c0.1,0,0.2,0,0.3,0c0.2-0.3,0.3-0.6,0.3-0.9c0-0.1-0.1-0.1-0.2-0.1C92.4,4.3,92.1,4.7,91.9,5z M92.2,2.3l0.3,0.3
		c0.1,0.1,0.2,0.2,0.4,0.2c0.1-0.1,0.1-0.2,0.1-0.3c0-0.1,0-0.3-0.1-0.4c0-0.1-0.1-0.2-0.3-0.2C92.5,1.9,92.3,2.1,92.2,2.3z
		 M93.9,4.4c0.4,0,0.8-0.1,1.1,0c0-0.3,0.1-0.7,0.1-1c-0.2,0.2-0.4,0.4-0.6,0.5C94.3,4.1,94.1,4.2,93.9,4.4z"></path>
</g>
<style data-made-with="vivus-instant">.YWUERhyl_0{stroke-dasharray:139 141;stroke-dashoffset:140;animation:YWUERhyl_draw 4800ms ease-out 0ms forwards;}.YWUERhyl_1{stroke-dasharray:95 97;stroke-dashoffset:96;animation:YWUERhyl_draw 4800ms ease-out 33ms forwards;}.YWUERhyl_2{stroke-dasharray:109 111;stroke-dashoffset:110;animation:YWUERhyl_draw 4800ms ease-out 66ms forwards;}.YWUERhyl_3{stroke-dasharray:120 122;stroke-dashoffset:121;animation:YWUERhyl_draw 4800ms ease-out 100ms forwards;}.YWUERhyl_4{stroke-dasharray:18 20;stroke-dashoffset:19;animation:YWUERhyl_draw 4800ms ease-out 133ms forwards;}.YWUERhyl_5{stroke-dasharray:100 102;stroke-dashoffset:101;animation:YWUERhyl_draw 4800ms ease-out 166ms forwards;}.YWUERhyl_6{stroke-dasharray:152 154;stroke-dashoffset:153;animation:YWUERhyl_draw 4800ms ease-out 200ms forwards;}@keyframes YWUERhyl_draw{100%{stroke-dashoffset:0;}}@keyframes YWUERhyl_fade{0%{stroke-opacity:1;}95.65217391304348%{stroke-opacity:1;}100%{stroke-opacity:0;}}</style></svg>
