<!--?xml version="1.0" encoding="utf-8"?-->
<!-- Generator: Adobe Illustrator 24.0.1, SVG Export Plug-In . SVG Version: 6.00 Build 0)  -->
<svg version="1.1" id="圖層_1" xmlns="http://www.w3.org/2000/svg" xmlns:xlink="http://www.w3.org/1999/xlink" x="0px" y="0px" viewBox="0 0 316.2 28.5" style="" xml:space="preserve">
<style type="text/css">
	.st0{enable-background:new    ;}
	.st1{fill:none;stroke:#000000;stroke-width:0.25;stroke-miterlimit:10;}
</style>
<g class="st0">
	<path class="st1 oJKihyTx_0" d="M30,12.7c-0.6,1.3-1.3,2.4-2.1,3.4c-0.8,1-1.7,1.7-2.7,2.4c-1,0.6-2.1,1.1-3.3,1.4c-1.2,0.3-2.4,0.4-3.7,0.4
		c-0.4,0-0.7,0-1,0c-0.3,0-0.5,0.1-0.6,0.1c-0.2,0-0.3,0.1-0.4,0.1c-0.1,0-0.2,0-0.3,0c-0.2,0-0.3,0-0.4-0.1c-0.1,0-0.2-0.1-0.2-0.2
		c0-0.1,0.1-0.2,0.2-0.3c0.2,0,0.3,0,0.4,0c0.3,0,0.5,0,0.8,0.1c0.2,0,0.5,0.1,0.8,0.1c1.1-0.5,2.1-1.3,2.9-2.3
		c0.8-1,1.5-2.2,2.1-3.4c0.6-1.3,1.2-2.6,1.7-4c0.5-1.4,1.1-2.7,1.8-3.9C26.5,5.1,27.2,4,28.1,3c0.8-1,1.9-1.8,3.1-2.3l-0.1-0.1
		c-0.8,0.1-1.7,0.5-2.6,1.1c-0.9,0.6-1.8,1.3-2.8,2.2c-0.9,0.9-1.8,1.8-2.7,2.9c-0.9,1.1-1.8,2.2-2.6,3.3c-0.6,0.9-1.3,1.8-1.9,2.7
		c-0.7,0.9-1.3,1.8-2.1,2.7c-0.7,0.9-1.5,1.7-2.3,2.6c-0.8,0.8-1.7,1.6-2.6,2.3l-0.2-0.3c0.7-1,1.2-2.1,1.6-3.3s0.8-2.4,1.1-3.6
		c0.3-1.2,0.7-2.4,1.1-3.6c0.4-1.2,0.8-2.3,1.4-3.4c0.6-1.1,1.2-2.1,2.1-3c0.8-0.9,1.9-1.7,3.1-2.3l-0.1-0.1c-1.2,0.4-2.4,1-3.4,1.8
		c-1,0.8-2,1.7-2.9,2.6c-0.9,1-1.7,2-2.4,3.2s-1.5,2.3-2.2,3.4c-0.7,1.1-1.4,2.2-2,3.2c-0.6,1-1.3,2-2,2.8c-0.7,0.8-1.4,1.4-2.2,1.9
		c-0.8,0.5-1.6,0.7-2.6,0.7c-0.2,0-0.5,0-0.7-0.1c-0.2,0-0.4-0.1-0.6-0.2c-0.2-0.1-0.4-0.3-0.5-0.4C0,19.5,0,19.3,0,19
		c0-0.3,0.1-0.5,0.3-0.7C0.4,18.1,0.7,18,1,18c0.2,0,0.4,0.1,0.6,0.3c0.1,0.2,0.2,0.4,0.2,0.6c0,0.1,0,0.3-0.1,0.5
		c-0.1,0.2-0.2,0.3-0.3,0.3c0,0.1,0.1,0.2,0.3,0.3c0.2,0.1,0.4,0.1,0.6,0.1c0.8,0,1.6-0.3,2.3-0.8c0.7-0.5,1.4-1.2,2.1-2
		c0.7-0.9,1.4-1.8,2-2.9c0.7-1.1,1.4-2.2,2.1-3.4c0.9-1.4,1.7-2.6,2.6-3.8c0.9-1.2,1.8-2.3,2.8-3.2s2.1-1.7,3.3-2.4
		c1.2-0.7,2.5-1.1,4-1.4l0,0.3c-1.2,0.4-2.1,0.9-2.9,1.7c-0.8,0.8-1.4,1.7-2,2.7c-0.6,1-1,2.2-1.4,3.4c-0.4,1.2-0.8,2.5-1.2,3.7
		c-0.4,1.3-0.9,2.5-1.4,3.7c-0.5,1.2-1.1,2.3-1.9,3.4l0.1,0.1c0.7-0.6,1.4-1.3,2.1-2.1c0.7-0.8,1.4-1.7,2.1-2.5
		c0.7-0.9,1.3-1.8,1.9-2.7c0.6-0.9,1.2-1.7,1.8-2.5c1.5-2,2.8-3.6,4-4.8c1.2-1.2,2.3-2.2,3.4-2.8c1-0.7,2-1.1,2.8-1.3
		C31.6,0.1,32.4,0,33.1,0c0.3,0,0.6,0,0.8,0.1c0.3,0.1,0.4,0.2,0.4,0.4c0,0.1-0.1,0.2-0.2,0.3c-0.1,0-0.2,0.1-0.4,0.1
		c-0.3,0-0.5,0-0.8-0.1c-0.3-0.1-0.6-0.1-0.9-0.1c-0.4,0-0.9,0.2-1.3,0.6c-0.4,0.4-0.9,0.9-1.3,1.5c-0.4,0.6-0.9,1.3-1.3,2
		c-0.4,0.7-0.8,1.5-1.1,2.2c-0.3,0.7-0.6,1.4-0.9,2c-0.3,0.6-0.5,1.1-0.6,1.5c-0.3,0.8-0.6,1.7-1,2.6c-0.4,0.9-0.9,1.8-1.5,2.7
		c-0.6,0.9-1.3,1.7-2.1,2.5c-0.8,0.8-1.8,1.4-3,1.9V20c2.8,0,5.2-0.6,7.2-1.8c2-1.2,3.5-3.1,4.7-5.5L30,12.7z"></path>
	<path class="st1 oJKihyTx_1" d="M44,13.1c-0.4,0.5-1,0.9-1.5,1.2s-1.1,0.4-1.7,0.4c-0.5,0-1-0.1-1.3-0.4c-0.4-0.2-0.7-0.5-0.9-0.8h-0.1
		c-0.2,0.7-0.5,1.5-1,2.3c-0.5,0.8-1.1,1.5-1.8,2.2c-0.7,0.7-1.5,1.2-2.3,1.7s-1.7,0.7-2.6,0.7c-0.8,0-1.4-0.2-1.8-0.7
		c-0.4-0.5-0.6-1.1-0.6-1.9c0-0.4,0.1-0.9,0.3-1.4c0.2-0.5,0.5-1.1,0.9-1.6c0.4-0.6,0.8-1.1,1.3-1.6c0.5-0.5,1-1,1.6-1.4
		c0.6-0.4,1.2-0.8,1.8-1c0.6-0.3,1.3-0.4,1.9-0.4c0.8,0,1.4,0.2,1.8,0.7c0.4,0.4,0.6,1,0.7,1.7c0,0.4,0.2,0.8,0.6,1.2
		c0.4,0.4,0.9,0.5,1.5,0.5c0.6,0,1.1-0.1,1.6-0.4c0.5-0.3,1-0.6,1.4-1.1L44,13.1z M29.9,18.6c0,0.5,0.1,0.9,0.3,1.1
		c0.2,0.3,0.5,0.4,0.8,0.4c0.5,0,1-0.1,1.5-0.4c0.5-0.3,1-0.6,1.4-1.1c0.5-0.4,0.9-0.9,1.3-1.5c0.4-0.6,0.7-1.1,1-1.7
		c0.3-0.6,0.5-1.2,0.7-1.8c0.2-0.6,0.3-1.1,0.3-1.6c0-0.4-0.1-0.7-0.3-1c-0.2-0.3-0.5-0.4-0.9-0.4c-0.4,0-0.8,0.1-1.3,0.4
		s-0.9,0.6-1.4,1c-0.5,0.4-0.9,0.9-1.3,1.4c-0.4,0.5-0.8,1.1-1.1,1.7c-0.3,0.6-0.6,1.2-0.8,1.7C30,17.5,29.9,18,29.9,18.6z"></path>
	<path class="st1 oJKihyTx_2" d="M61,0.8c-0.7,1.2-1.5,2.4-2.4,3.7c-0.9,1.3-1.7,2.6-2.6,3.8c-0.9,1.3-1.7,2.5-2.5,3.7
		c-0.8,1.2-1.5,2.3-2.1,3.3c-0.6,1-1.1,1.8-1.5,2.6c-0.4,0.7-0.5,1.2-0.5,1.6c0,0.2,0.1,0.4,0.2,0.5c0.1,0.1,0.3,0.2,0.5,0.2
		c0.5,0,1-0.2,1.6-0.6c0.6-0.4,1.3-1,2.2-1.8c0.7-0.7,1.4-1.5,2.1-2.4c0.7-0.9,1.3-1.7,1.8-2.6l0.2,0.1c-0.2,0.3-0.4,0.6-0.7,1.1
		c-0.3,0.4-0.6,0.8-0.9,1.2c-0.3,0.4-0.7,0.9-1.1,1.3c-0.4,0.4-0.8,0.9-1.1,1.2c-0.7,0.8-1.5,1.4-2.2,1.9c-0.7,0.5-1.4,0.7-2,0.7
		c-0.6,0-1-0.1-1.3-0.4c-0.3-0.3-0.4-0.6-0.4-1c0-0.4,0.1-0.7,0.2-1c0.1-0.3,0.3-0.6,0.4-0.9l-0.1,0c-0.3,0.3-0.6,0.7-1,1.1
		c-0.4,0.4-0.8,0.7-1.2,1.1s-0.8,0.6-1.3,0.8c-0.5,0.2-0.9,0.3-1.4,0.3c-0.7,0-1.2-0.2-1.6-0.6c-0.4-0.4-0.5-0.9-0.5-1.5
		c0-0.8,0.3-1.6,0.8-2.6c0.5-0.9,1.2-1.8,2-2.6c0.8-0.8,1.7-1.5,2.6-2c0.9-0.5,1.8-0.8,2.6-0.8c0.6,0,1.1,0.2,1.4,0.6
		c0.4,0.4,0.5,0.9,0.5,1.4h0.1l7.2-11.5H61z M51,12.4c0-0.4-0.1-0.8-0.2-1.2c-0.1-0.3-0.5-0.5-1-0.5c-0.4,0-0.8,0.1-1.2,0.4
		c-0.5,0.3-0.9,0.6-1.4,1s-0.9,0.9-1.4,1.5c-0.4,0.6-0.8,1.1-1.2,1.7c-0.3,0.6-0.6,1.1-0.8,1.7c-0.2,0.5-0.3,1-0.3,1.5
		c0,0.4,0.1,0.7,0.2,1c0.1,0.3,0.4,0.4,0.8,0.4c0.3,0,0.7-0.1,1.2-0.4c0.4-0.3,0.9-0.6,1.4-1c0.5-0.4,1-0.9,1.4-1.4
		c0.5-0.5,0.9-1.1,1.3-1.6c0.4-0.5,0.7-1.1,0.9-1.6C50.9,13.2,51,12.8,51,12.4z"></path>
	<path class="st1 oJKihyTx_3" d="M68.9,13c-0.3,0.5-0.6,1-1.1,1.5c-0.4,0.6-0.9,1.1-1.4,1.7c-0.5,0.6-1.1,1.1-1.7,1.6s-1.2,1-1.9,1.4
		c-0.7,0.4-1.3,0.7-2,1c-0.7,0.2-1.3,0.4-1.9,0.4c-0.8,0-1.4-0.2-1.8-0.6c-0.4-0.4-0.6-1-0.6-1.7c0-0.8,0.2-1.7,0.7-2.6
		c0.5-0.9,1.1-1.7,1.9-2.5c0.8-0.8,1.6-1.4,2.5-1.9c0.9-0.5,1.8-0.8,2.6-0.8c0.5,0,0.8,0.1,1.1,0.3c0.3,0.2,0.4,0.5,0.4,0.9
		c0,0.4-0.2,0.9-0.7,1.3c-0.5,0.4-1.1,0.8-1.8,1.1c-0.7,0.3-1.5,0.7-2.3,0.9c-0.8,0.3-1.5,0.5-2.1,0.6c-0.2,0.4-0.4,0.8-0.5,1.3
		c-0.1,0.5-0.2,0.9-0.2,1.4c0,0.2,0,0.4,0.1,0.7c0,0.2,0.1,0.4,0.2,0.6c0.1,0.2,0.2,0.3,0.4,0.4C59,20,59.2,20,59.4,20
		c0.6,0,1.3-0.2,2.2-0.6c0.8-0.4,1.7-0.9,2.5-1.6c0.9-0.7,1.7-1.4,2.5-2.3c0.8-0.9,1.5-1.7,2-2.7L68.9,13z M64.3,11.5
		c0-0.3-0.1-0.5-0.2-0.6c-0.1-0.1-0.3-0.2-0.5-0.2c-0.4,0-0.8,0.2-1.3,0.5c-0.5,0.3-0.9,0.7-1.4,1.1c-0.4,0.5-0.9,0.9-1.2,1.5
		c-0.4,0.5-0.6,1-0.8,1.4c0.4-0.1,0.9-0.2,1.5-0.4c0.6-0.2,1.2-0.5,1.8-0.8c0.6-0.3,1.1-0.7,1.5-1.1C64.1,12.4,64.3,12,64.3,11.5z"></path>
	<path class="st1 oJKihyTx_4" d="M79.5,0.7c-1.7,2.5-3.1,4.7-4.3,6.5c-1.2,1.8-2.3,3.4-3.2,4.7c-0.9,1.3-1.6,2.4-2.2,3.2
		c-0.6,0.9-1,1.5-1.3,2.1c-0.3,0.5-0.5,1-0.7,1.3c-0.1,0.3-0.2,0.6-0.2,0.8c0,0.5,0.2,0.7,0.6,0.7c0.5,0,1-0.2,1.6-0.6
		c0.6-0.4,1.3-0.9,2-1.6c0.7-0.7,1.5-1.4,2.2-2.3c0.7-0.9,1.5-1.8,2.2-2.8l0.3,0.1c-0.7,1-1.4,1.9-2.1,2.8c-0.7,0.9-1.5,1.7-2.2,2.3
		c-0.9,0.9-1.7,1.5-2.4,1.9c-0.7,0.4-1.3,0.6-1.8,0.6c-0.6,0-1-0.1-1.2-0.4c-0.3-0.3-0.4-0.6-0.4-1c0-0.4,0.1-0.8,0.2-1.2
		c0.1-0.4,0.4-0.9,0.7-1.5c0.3-0.6,0.8-1.3,1.3-2.1c0.6-0.8,1.2-1.9,2-3.1c0.8-1.2,1.8-2.7,2.9-4.4s2.4-3.7,3.8-6H79.5z"></path>
	<path class="st1 oJKihyTx_5" d="M80.9,10.6c-1,1.5-1.9,2.7-2.6,3.7c-0.7,1-1.3,1.8-1.7,2.5c-0.4,0.7-0.8,1.2-1,1.6c-0.2,0.4-0.3,0.7-0.3,1
		c0,0.5,0.2,0.7,0.6,0.7c0.4,0,0.8-0.1,1.3-0.4c0.5-0.3,1-0.6,1.6-1.1c0.5-0.4,1.1-0.9,1.6-1.5s1.1-1.1,1.5-1.6
		c0.5-0.5,0.9-1,1.3-1.5c0.4-0.5,0.6-0.9,0.8-1.2l0.2,0.1c-0.2,0.4-0.5,0.8-0.9,1.3c-0.4,0.5-0.8,1.1-1.3,1.6
		c-0.5,0.6-1,1.1-1.5,1.6c-0.5,0.5-1.1,1-1.7,1.5c-0.6,0.4-1.1,0.8-1.6,1c-0.5,0.3-1,0.4-1.5,0.4c-0.5,0-0.9-0.1-1.1-0.4
		c-0.2-0.3-0.4-0.6-0.4-0.9c0-0.4,0.1-0.8,0.3-1.2c0.2-0.4,0.5-1,0.9-1.6c0.4-0.6,0.9-1.4,1.5-2.3c0.6-0.9,1.4-2,2.3-3.3H80.9z
		 M82.6,5.4c0.3,0,0.5,0.1,0.6,0.3c0.2,0.2,0.3,0.4,0.3,0.7c0,0.3-0.1,0.5-0.3,0.7c-0.2,0.2-0.4,0.3-0.6,0.3c-0.3,0-0.5-0.1-0.6-0.3
		s-0.3-0.4-0.3-0.7c0-0.3,0.1-0.5,0.3-0.7S82.3,5.4,82.6,5.4z"></path>
	<path class="st1 oJKihyTx_6" d="M88.3,10.6l-3.7,5.1l0.1,0.1c0.4-0.5,0.8-1,1.4-1.6c0.5-0.6,1.1-1.2,1.7-1.8c0.6-0.6,1.2-1,1.9-1.4
		c0.6-0.4,1.3-0.6,1.9-0.6c0.6,0,1,0.2,1.3,0.5c0.3,0.3,0.5,0.7,0.5,1.2c0,0.3-0.1,0.7-0.3,1.1s-0.5,0.9-0.8,1.3
		c-0.3,0.5-0.7,0.9-1,1.4c-0.4,0.5-0.7,0.9-1,1.4c-0.3,0.4-0.6,0.8-0.8,1.2c-0.2,0.4-0.3,0.7-0.3,0.9c0,0.5,0.3,0.8,0.8,0.8
		c0.6,0,1.2-0.2,1.9-0.6c0.7-0.4,1.5-1.1,2.4-2c0.4-0.4,0.8-0.8,1.1-1.2c0.4-0.4,0.8-0.9,1.1-1.3c0.4-0.4,0.7-0.9,1-1.2
		c0.3-0.4,0.5-0.7,0.7-1l0.2,0.1c-0.4,0.6-0.9,1.2-1.4,2c-0.6,0.8-1.2,1.5-1.9,2.3c-0.4,0.4-0.8,0.9-1.3,1.3
		c-0.4,0.4-0.9,0.8-1.3,1.1c-0.4,0.3-0.9,0.6-1.3,0.7c-0.4,0.2-0.8,0.3-1.2,0.3c-0.5,0-1-0.1-1.3-0.4c-0.4-0.3-0.5-0.7-0.5-1.2
		c0-0.6,0.2-1.2,0.7-1.8c0.4-0.7,0.9-1.3,1.5-2c0.5-0.7,1-1.3,1.5-1.9c0.4-0.6,0.7-1.2,0.7-1.6c0-0.2-0.1-0.4-0.2-0.5
		c-0.1-0.1-0.3-0.2-0.6-0.2c-0.5,0-1,0.2-1.6,0.5c-0.6,0.3-1.2,0.8-1.8,1.4c-0.6,0.6-1.2,1.2-1.8,1.9c-0.6,0.7-1.2,1.4-1.7,2.1
		c-0.5,0.7-1,1.4-1.4,2c-0.4,0.6-0.7,1.2-0.9,1.6h-1.7c0.5-0.8,1-1.7,1.6-2.5c0.6-0.9,1.1-1.7,1.6-2.5c0.5-0.8,1.1-1.6,1.6-2.4
		s0.9-1.5,1.3-2.1L88.3,10.6z"></path>
	<path class="st1 oJKihyTx_7" d="M108.9,10.6c-1.1,1.5-2.2,3.1-3.2,4.6c-1,1.6-2,3.1-3.1,4.7c0.9-0.2,1.9-0.5,2.8-1c0.9-0.5,1.8-1,2.6-1.7
		c0.8-0.7,1.5-1.4,2.2-2.2c0.7-0.8,1.3-1.6,1.7-2.4l0.1,0.2c-0.8,1.4-1.7,2.6-2.7,3.5c-1,0.9-1.9,1.7-2.8,2.2
		c-0.9,0.6-1.7,1-2.5,1.2c-0.7,0.3-1.3,0.4-1.6,0.4c-0.1,0.1-0.3,0.3-0.6,0.7c-0.3,0.4-0.7,1-1.1,1.6c-0.5,0.6-1,1.3-1.7,2
		c-0.6,0.7-1.4,1.3-2.2,1.9c-0.8,0.6-1.7,1.1-2.7,1.5c-1,0.4-2.1,0.6-3.2,0.6c-0.7,0-1.3-0.1-1.9-0.2c-0.6-0.1-1.1-0.4-1.5-0.6
		c-0.4-0.3-0.7-0.6-1-1c-0.2-0.4-0.4-0.8-0.4-1.3c0-0.8,0.3-1.5,0.9-2s1.3-0.8,2.2-0.8c0.2,0,0.3,0,0.5,0c0.1,0,0.2,0,0.4,0.1v0.2
		H90c-0.7,0-1.3,0.2-1.6,0.7c-0.4,0.5-0.5,1.1-0.5,1.8c0,0.5,0.1,0.9,0.3,1.3c0.2,0.4,0.4,0.6,0.7,0.9c0.3,0.2,0.7,0.4,1.1,0.5
		c0.4,0.1,0.9,0.2,1.3,0.2c0.8,0,1.6-0.2,2.4-0.6c0.8-0.4,1.6-0.9,2.3-1.5s1.4-1.3,2.1-2.1s1.3-1.6,1.9-2.4c0.6-0.8,1.1-1.6,1.6-2.3
		s0.9-1.4,1.3-1.9l-0.1-0.1c-0.3,0.4-0.6,0.7-1,1.1c-0.4,0.4-0.8,0.7-1.2,1c-0.4,0.3-0.8,0.6-1.3,0.8c-0.4,0.2-0.9,0.3-1.4,0.3
		c-0.4,0-0.7-0.1-0.9-0.2c-0.3-0.1-0.5-0.3-0.6-0.5c-0.2-0.2-0.3-0.5-0.4-0.7c-0.1-0.3-0.1-0.5-0.1-0.8c0-0.6,0.1-1.2,0.4-1.8
		c0.3-0.6,0.6-1.2,1-1.8c0.4-0.6,0.9-1.1,1.4-1.7c0.5-0.5,1.1-1,1.7-1.4c0.6-0.4,1.2-0.7,1.8-0.9c0.6-0.2,1.1-0.4,1.7-0.4
		c0.7,0,1.3,0.2,1.6,0.5c0.3,0.4,0.5,0.8,0.5,1.3h0.1l1-1.6H108.9z M103.7,10.7c-0.6,0-1.3,0.3-2,0.8c-0.7,0.5-1.4,1.2-2,1.9
		c-0.6,0.8-1.1,1.6-1.6,2.5c-0.4,0.9-0.6,1.7-0.6,2.5c0,0.4,0.1,0.7,0.3,1c0.2,0.3,0.5,0.4,0.8,0.4c0.3,0,0.6-0.1,1-0.3
		c0.4-0.2,0.9-0.5,1.3-0.9c0.5-0.4,0.9-0.8,1.4-1.3c0.5-0.5,0.9-1.1,1.2-1.6c0.4-0.6,0.7-1.2,0.9-1.8c0.2-0.6,0.4-1.2,0.4-1.9
		c0-0.3-0.1-0.6-0.3-0.8C104.5,10.8,104.2,10.7,103.7,10.7z"></path>
	<path class="st1 oJKihyTx_8" d="M131.2,13.2c-0.4,0.7-1,1.4-1.7,2.2c-0.7,0.8-1.5,1.5-2.3,2.2c-1,0.8-2,1.5-3,2c-1,0.5-2,0.8-3,0.8
		c-0.7,0-1.3-0.2-1.7-0.5c-0.5-0.4-0.7-0.9-0.7-1.6c0-0.9,0.3-1.8,0.8-2.7c0.5-0.9,1.2-1.8,1.9-2.6c0.8-0.8,1.6-1.4,2.5-1.9
		c0.9-0.5,1.8-0.7,2.6-0.7c0.5,0,1,0.1,1.4,0.3c0.4,0.2,0.6,0.5,0.6,1c0,0.2-0.1,0.4-0.2,0.6c-0.1,0.1-0.3,0.3-0.4,0.4
		c-0.2,0.1-0.4,0.2-0.6,0.2c-0.2,0-0.4,0.1-0.6,0.1c0.1-0.2,0.1-0.4,0.2-0.6c0.1-0.2,0.1-0.4,0.1-0.6c0-0.7-0.3-1-1-1
		c-0.5,0-1.1,0.2-1.7,0.7c-0.7,0.5-1.3,1.1-1.9,1.8c-0.6,0.7-1.1,1.5-1.5,2.4c-0.4,0.9-0.6,1.7-0.6,2.5c0,0.5,0.1,0.9,0.4,1.3
		c0.2,0.4,0.6,0.5,1.1,0.5c0.7,0,1.4-0.2,2.3-0.6c0.8-0.4,1.7-1,2.5-1.6c0.8-0.7,1.6-1.4,2.4-2.3c0.8-0.8,1.4-1.7,1.9-2.5
		L131.2,13.2z"></path>
	<path class="st1 oJKihyTx_9" d="M135.5,10.6l-3.6,5.2l0.1,0.1c0.3-0.3,0.6-0.7,1-1.1c0.4-0.4,0.8-0.9,1.3-1.3c0.5-0.4,1-0.9,1.5-1.3
		c0.5-0.4,1-0.8,1.5-1.1c0.1-0.2,0.2-0.3,0.3-0.4c0.1-0.1,0.3-0.2,0.7-0.2c0.2,0,0.4,0,0.5,0c0.2,0,0.3,0,0.5,0
		c-0.3,0.3-0.6,0.7-0.9,1.2c-0.3,0.5-0.4,1-0.4,1.5c0,0.4,0.1,0.8,0.3,1s0.5,0.4,0.8,0.4c0.3,0,0.6-0.1,0.8-0.2
		c0.3-0.1,0.5-0.3,0.8-0.4c0.2-0.2,0.5-0.3,0.7-0.5c0.2-0.2,0.4-0.4,0.6-0.5l0.2,0.1c-0.2,0.2-0.4,0.4-0.6,0.6
		c-0.2,0.2-0.5,0.4-0.8,0.6c-0.3,0.2-0.6,0.3-0.9,0.5c-0.3,0.1-0.6,0.2-1,0.2c-0.6,0-1.1-0.2-1.4-0.5c-0.4-0.4-0.5-0.9-0.5-1.5
		c0-0.4,0.1-0.9,0.3-1.2l-0.1-0.1c-0.8,0.5-1.6,1.2-2.5,2.1c-0.9,0.9-1.9,1.9-2.9,3c-0.4,0.4-0.8,1-1.2,1.6
		c-0.4,0.7-0.8,1.4-1.1,2.1h-1.8c1-1.6,2-3.2,3-4.8c1-1.6,2-3.2,3.1-4.8H135.5z"></path>
	<path class="st1 oJKihyTx_10" d="M153.1,13c-0.3,0.5-0.6,1-1.1,1.5c-0.4,0.6-0.9,1.1-1.4,1.7c-0.5,0.6-1.1,1.1-1.7,1.6c-0.6,0.5-1.2,1-1.9,1.4
		c-0.7,0.4-1.3,0.7-2,1c-0.7,0.2-1.3,0.4-1.9,0.4c-0.8,0-1.4-0.2-1.8-0.6c-0.4-0.4-0.6-1-0.6-1.7c0-0.8,0.2-1.7,0.7-2.6
		c0.5-0.9,1.1-1.7,1.9-2.5c0.8-0.8,1.6-1.4,2.5-1.9c0.9-0.5,1.8-0.8,2.6-0.8c0.5,0,0.8,0.1,1.1,0.3c0.3,0.2,0.4,0.5,0.4,0.9
		c0,0.4-0.2,0.9-0.7,1.3c-0.5,0.4-1.1,0.8-1.8,1.1c-0.7,0.3-1.5,0.7-2.3,0.9c-0.8,0.3-1.5,0.5-2.1,0.6c-0.2,0.4-0.4,0.8-0.5,1.3
		c-0.1,0.5-0.2,0.9-0.2,1.4c0,0.2,0,0.4,0.1,0.7c0,0.2,0.1,0.4,0.2,0.6c0.1,0.2,0.2,0.3,0.4,0.4c0.2,0.1,0.4,0.2,0.7,0.2
		c0.6,0,1.3-0.2,2.2-0.6c0.8-0.4,1.7-0.9,2.5-1.6c0.9-0.7,1.7-1.4,2.5-2.3c0.8-0.9,1.5-1.7,2-2.7L153.1,13z M148.5,11.5
		c0-0.3-0.1-0.5-0.2-0.6c-0.1-0.1-0.3-0.2-0.5-0.2c-0.4,0-0.8,0.2-1.3,0.5c-0.5,0.3-0.9,0.7-1.4,1.1c-0.4,0.5-0.9,0.9-1.2,1.5
		c-0.4,0.5-0.6,1-0.8,1.4c0.4-0.1,0.9-0.2,1.5-0.4c0.6-0.2,1.2-0.5,1.8-0.8c0.6-0.3,1.1-0.7,1.5-1.1C148.3,12.4,148.5,12,148.5,11.5
		z"></path>
	<path class="st1 oJKihyTx_11" d="M161.8,10.6h1.8c-0.7,1-1.4,1.9-2,2.8c-0.6,0.9-1.2,1.8-1.7,2.5c-0.5,0.8-0.9,1.5-1.2,2
		c-0.3,0.6-0.4,1.1-0.4,1.4c0,0.5,0.3,0.7,0.8,0.7c0.4,0,0.9-0.2,1.5-0.6c0.6-0.4,1.3-0.9,2-1.6c0.7-0.7,1.4-1.5,2.2-2.4
		c0.7-0.9,1.5-1.8,2.1-2.9l0.2,0.1c-0.5,0.8-1.1,1.6-1.8,2.5c-0.7,0.9-1.4,1.7-2.1,2.5c-0.7,0.8-1.5,1.4-2.2,1.9
		c-0.7,0.5-1.4,0.8-2.1,0.8c-0.5,0-0.9-0.1-1.2-0.4c-0.3-0.3-0.4-0.6-0.4-1c0-0.3,0-0.5,0.1-0.8c0.1-0.3,0.2-0.5,0.3-0.8l-0.1,0
		c-0.2,0.3-0.5,0.6-0.9,0.9c-0.4,0.3-0.8,0.7-1.2,1c-0.4,0.3-0.9,0.6-1.3,0.8c-0.4,0.2-0.9,0.3-1.3,0.3c-0.7,0-1.2-0.2-1.5-0.6
		c-0.3-0.4-0.4-0.9-0.4-1.5c0-0.8,0.2-1.6,0.7-2.5c0.5-0.9,1.1-1.8,1.8-2.6c0.7-0.8,1.6-1.5,2.4-2c0.9-0.5,1.7-0.8,2.5-0.8
		c0.4,0,0.7,0.1,1,0.2c0.3,0.1,0.5,0.2,0.7,0.4c0.2,0.2,0.3,0.4,0.4,0.6c0.1,0.2,0.2,0.5,0.2,0.7h0.1L161.8,10.6z M152.6,18.4
		c0,0.4,0.1,0.8,0.3,1c0.2,0.2,0.4,0.3,0.7,0.3c0.3,0,0.7-0.1,1.1-0.3c0.4-0.2,0.9-0.5,1.3-0.9c0.5-0.4,0.9-0.8,1.4-1.4
		c0.5-0.5,0.9-1.1,1.2-1.6c0.4-0.6,0.6-1.2,0.9-1.8c0.2-0.6,0.3-1.2,0.3-1.7c0-0.4-0.1-0.8-0.4-1c-0.2-0.2-0.5-0.3-0.9-0.3
		c-0.6,0-1.2,0.2-1.9,0.7c-0.7,0.5-1.3,1.1-2,1.9c-0.6,0.8-1.1,1.6-1.6,2.5C152.8,16.7,152.6,17.6,152.6,18.4z"></path>
	<path class="st1 oJKihyTx_12" d="M173.2,7.3l-2.2,3.3h3.7l-0.2,0.3h-3.8c-0.7,1.2-1.4,2.3-2,3.2c-0.6,0.9-1.1,1.7-1.5,2.3
		c-0.4,0.6-0.7,1.2-0.9,1.6c-0.2,0.4-0.3,0.8-0.3,1.2c0,0.4,0.1,0.6,0.4,0.7c0.2,0.1,0.5,0.2,0.8,0.2c0.7,0,1.4-0.3,2.2-0.8
		s1.6-1.1,2.4-1.9c0.8-0.7,1.6-1.5,2.3-2.4c0.7-0.8,1.3-1.6,1.8-2.3l0.2,0.1c-0.6,0.8-1.3,1.6-2.1,2.5c-0.8,0.9-1.5,1.7-2.3,2.4
		c-0.8,0.7-1.6,1.3-2.4,1.8c-0.8,0.5-1.6,0.7-2.3,0.7c-0.6,0-1.1-0.2-1.5-0.5c-0.4-0.4-0.6-0.8-0.6-1.5c0-0.4,0.1-0.9,0.4-1.4
		c0.2-0.5,0.6-1.1,1-1.7c0.4-0.6,0.8-1.3,1.3-2c0.5-0.7,1-1.5,1.5-2.3h-1.5l0.2-0.3h1.6l2.2-3.3H173.2z"></path>
	<path class="st1 oJKihyTx_13" d="M187.1,13c-0.3,0.5-0.6,1-1,1.5c-0.4,0.6-0.9,1.1-1.4,1.7c-0.5,0.6-1.1,1.1-1.7,1.6c-0.6,0.5-1.2,1-1.9,1.4
		c-0.7,0.4-1.3,0.7-2,1c-0.7,0.2-1.3,0.4-1.9,0.4c-0.8,0-1.4-0.2-1.8-0.6s-0.6-1-0.6-1.7c0-0.8,0.2-1.7,0.7-2.6
		c0.5-0.9,1.1-1.7,1.9-2.5c0.8-0.8,1.6-1.4,2.5-1.9c0.9-0.5,1.8-0.8,2.6-0.8c0.5,0,0.8,0.1,1.1,0.3c0.3,0.2,0.4,0.5,0.4,0.9
		c0,0.4-0.2,0.9-0.7,1.3s-1.1,0.8-1.8,1.1c-0.7,0.3-1.5,0.7-2.3,0.9c-0.8,0.3-1.5,0.5-2.1,0.6c-0.2,0.4-0.4,0.8-0.5,1.3
		c-0.1,0.5-0.2,0.9-0.2,1.4c0,0.2,0,0.4,0.1,0.7c0,0.2,0.1,0.4,0.2,0.6c0.1,0.2,0.2,0.3,0.4,0.4c0.2,0.1,0.4,0.2,0.7,0.2
		c0.6,0,1.3-0.2,2.2-0.6c0.8-0.4,1.7-0.9,2.5-1.6s1.7-1.4,2.5-2.3c0.8-0.9,1.5-1.7,2-2.7L187.1,13z M182.5,11.5
		c0-0.3-0.1-0.5-0.2-0.6c-0.1-0.1-0.3-0.2-0.5-0.2c-0.4,0-0.8,0.2-1.3,0.5c-0.5,0.3-0.9,0.7-1.4,1.1c-0.4,0.5-0.9,0.9-1.2,1.5
		c-0.4,0.5-0.6,1-0.8,1.4c0.4-0.1,0.9-0.2,1.5-0.4c0.6-0.2,1.2-0.5,1.8-0.8c0.6-0.3,1.1-0.7,1.5-1.1C182.3,12.4,182.5,12,182.5,11.5
		z"></path>
	<path class="st1 oJKihyTx_14" d="M197.8,13c-0.6,0.9-1.2,1.8-1.9,2.7c-0.7,0.9-1.5,1.7-2.4,2.4c-0.9,0.7-1.8,1.3-2.9,1.7
		c-1,0.4-2.1,0.7-3.3,0.7c-0.4,0-0.9-0.1-1.3-0.2c-0.4-0.1-0.7-0.3-1-0.5s-0.5-0.5-0.7-0.9c-0.2-0.3-0.3-0.8-0.3-1.2
		c0-0.5,0.2-0.9,0.5-1.3c0.3-0.4,0.7-0.6,1.3-0.6c0.3,0,0.5,0.1,0.7,0.2c0.2,0.1,0.3,0.3,0.3,0.6c0,0.3-0.1,0.5-0.2,0.7
		c-0.1,0.2-0.3,0.3-0.6,0.3c-0.2,0-0.4-0.1-0.5-0.2c-0.1-0.1-0.2-0.3-0.2-0.4c-0.2,0.1-0.3,0.3-0.4,0.5c-0.1,0.2-0.1,0.4-0.1,0.7
		c0,0.7,0.2,1.1,0.7,1.5c0.5,0.3,1,0.5,1.7,0.5c0.4,0,0.7-0.1,1-0.2c0.3-0.2,0.5-0.4,0.7-0.6c0.2-0.3,0.3-0.5,0.4-0.9
		c0.1-0.3,0.1-0.7,0.1-1c0-0.4-0.1-0.7-0.2-1.1c-0.1-0.4-0.3-0.8-0.4-1.1c-0.1-0.4-0.3-0.7-0.4-1.1c-0.1-0.4-0.2-0.7-0.2-1
		c0-0.4,0.1-0.8,0.3-1.1c0.2-0.3,0.4-0.6,0.7-0.8s0.6-0.4,1-0.5c0.4-0.1,0.8-0.2,1.2-0.2c0.7,0,1.4,0.2,1.8,0.5
		c0.5,0.3,0.7,0.8,0.7,1.3c0,0.5-0.2,0.8-0.5,1.1c-0.4,0.2-0.8,0.3-1.2,0.3c0.1-0.2,0.2-0.5,0.3-0.7s0.1-0.6,0.1-0.8
		c0-0.4-0.1-0.7-0.4-0.9c-0.2-0.3-0.6-0.4-1-0.4c-0.5,0-0.9,0.2-1.2,0.5c-0.3,0.3-0.4,0.7-0.4,1.2c0,0.4,0.1,0.8,0.2,1.2
		c0.1,0.4,0.3,0.7,0.5,1.1c0.2,0.4,0.3,0.8,0.5,1.1c0.1,0.4,0.2,0.8,0.2,1.3c0,0.4-0.1,0.7-0.2,1c-0.2,0.3-0.4,0.6-0.6,0.9
		c-0.3,0.3-0.6,0.5-0.9,0.7c-0.3,0.2-0.7,0.3-1,0.4l0.1,0.1c1-0.1,2-0.4,2.9-0.9c0.9-0.5,1.8-1.1,2.6-1.7c0.8-0.7,1.5-1.4,2.2-2.2
		c0.7-0.8,1.3-1.6,1.8-2.4L197.8,13z"></path>
	<path class="st1 oJKihyTx_15" d="M215.1,10.6h1.8c-0.7,1-1.4,1.9-2,2.8s-1.2,1.8-1.7,2.5c-0.5,0.8-0.9,1.5-1.2,2s-0.4,1.1-0.4,1.4
		c0,0.5,0.3,0.7,0.8,0.7c0.4,0,0.9-0.2,1.5-0.6c0.6-0.4,1.3-0.9,2-1.6c0.7-0.7,1.4-1.5,2.2-2.4c0.7-0.9,1.5-1.8,2.1-2.9l0.2,0.1
		c-0.5,0.8-1.1,1.6-1.8,2.5c-0.7,0.9-1.4,1.7-2.1,2.5c-0.7,0.8-1.5,1.4-2.2,1.9s-1.4,0.8-2.1,0.8c-0.5,0-0.9-0.1-1.2-0.4
		c-0.3-0.3-0.4-0.6-0.4-1c0-0.3,0-0.5,0.1-0.8c0.1-0.3,0.2-0.5,0.3-0.8l-0.1,0c-0.2,0.3-0.5,0.6-0.9,0.9c-0.4,0.3-0.8,0.7-1.2,1
		c-0.4,0.3-0.9,0.6-1.3,0.8c-0.4,0.2-0.9,0.3-1.3,0.3c-0.7,0-1.2-0.2-1.5-0.6c-0.3-0.4-0.4-0.9-0.4-1.5c0-0.8,0.2-1.6,0.7-2.5
		c0.5-0.9,1.1-1.8,1.8-2.6c0.7-0.8,1.6-1.5,2.4-2c0.9-0.5,1.7-0.8,2.5-0.8c0.4,0,0.7,0.1,1,0.2c0.3,0.1,0.5,0.2,0.7,0.4
		c0.2,0.2,0.3,0.4,0.4,0.6c0.1,0.2,0.2,0.5,0.2,0.7h0.1L215.1,10.6z M205.9,18.4c0,0.4,0.1,0.8,0.3,1c0.2,0.2,0.4,0.3,0.7,0.3
		c0.3,0,0.7-0.1,1.1-0.3c0.4-0.2,0.9-0.5,1.3-0.9c0.5-0.4,0.9-0.8,1.4-1.4c0.5-0.5,0.9-1.1,1.2-1.6c0.4-0.6,0.6-1.2,0.9-1.8
		c0.2-0.6,0.3-1.2,0.3-1.7c0-0.4-0.1-0.8-0.4-1c-0.2-0.2-0.5-0.3-0.9-0.3c-0.6,0-1.2,0.2-1.9,0.7c-0.7,0.5-1.3,1.1-2,1.9
		c-0.6,0.8-1.1,1.6-1.6,2.5C206.2,16.7,205.9,17.6,205.9,18.4z"></path>
	<path class="st1 oJKihyTx_16" d="M231.1,13c-0.3,0.5-0.6,1-1,1.5c-0.4,0.6-0.9,1.1-1.4,1.7c-0.5,0.6-1.1,1.1-1.7,1.6c-0.6,0.5-1.2,1-1.9,1.4
		c-0.7,0.4-1.3,0.7-2,1c-0.7,0.2-1.3,0.4-1.9,0.4c-0.8,0-1.4-0.2-1.8-0.6s-0.6-1-0.6-1.7c0-0.8,0.2-1.7,0.7-2.6
		c0.5-0.9,1.1-1.7,1.9-2.5c0.8-0.8,1.6-1.4,2.5-1.9c0.9-0.5,1.8-0.8,2.6-0.8c0.5,0,0.8,0.1,1.1,0.3c0.3,0.2,0.4,0.5,0.4,0.9
		c0,0.4-0.2,0.9-0.7,1.3c-0.5,0.4-1.1,0.8-1.8,1.1c-0.7,0.3-1.5,0.7-2.3,0.9c-0.8,0.3-1.5,0.5-2.1,0.6c-0.2,0.4-0.4,0.8-0.5,1.3
		c-0.1,0.5-0.2,0.9-0.2,1.4c0,0.2,0,0.4,0.1,0.7c0,0.2,0.1,0.4,0.2,0.6c0.1,0.2,0.2,0.3,0.4,0.4c0.2,0.1,0.4,0.2,0.7,0.2
		c0.6,0,1.3-0.2,2.2-0.6c0.8-0.4,1.7-0.9,2.5-1.6c0.9-0.7,1.7-1.4,2.5-2.3c0.8-0.9,1.5-1.7,2-2.7L231.1,13z M226.6,11.5
		c0-0.3-0.1-0.5-0.2-0.6c-0.1-0.1-0.3-0.2-0.5-0.2c-0.4,0-0.8,0.2-1.3,0.5c-0.5,0.3-0.9,0.7-1.4,1.1c-0.4,0.5-0.9,0.9-1.2,1.5
		c-0.4,0.5-0.6,1-0.8,1.4c0.4-0.1,0.9-0.2,1.5-0.4c0.6-0.2,1.2-0.5,1.8-0.8c0.6-0.3,1.1-0.7,1.5-1.1C226.4,12.4,226.6,12,226.6,11.5
		z"></path>
	<path class="st1 oJKihyTx_17" d="M241.9,13c-0.6,0.9-1.2,1.8-1.9,2.7c-0.7,0.9-1.5,1.7-2.4,2.4c-0.9,0.7-1.8,1.3-2.9,1.7
		c-1,0.4-2.1,0.7-3.3,0.7c-0.4,0-0.9-0.1-1.3-0.2c-0.4-0.1-0.7-0.3-1-0.5c-0.3-0.2-0.5-0.5-0.7-0.9c-0.2-0.3-0.3-0.8-0.3-1.2
		c0-0.5,0.2-0.9,0.5-1.3c0.3-0.4,0.7-0.6,1.3-0.6c0.3,0,0.5,0.1,0.7,0.2c0.2,0.1,0.3,0.3,0.3,0.6c0,0.3-0.1,0.5-0.2,0.7
		c-0.1,0.2-0.3,0.3-0.6,0.3c-0.2,0-0.4-0.1-0.5-0.2c-0.1-0.1-0.2-0.3-0.2-0.4c-0.2,0.1-0.3,0.3-0.4,0.5c-0.1,0.2-0.1,0.4-0.1,0.7
		c0,0.7,0.2,1.1,0.7,1.5c0.5,0.3,1.1,0.5,1.7,0.5c0.4,0,0.7-0.1,1-0.2c0.3-0.2,0.5-0.4,0.7-0.6c0.2-0.3,0.3-0.5,0.4-0.9
		s0.1-0.7,0.1-1c0-0.4-0.1-0.7-0.2-1.1c-0.1-0.4-0.3-0.8-0.4-1.1c-0.1-0.4-0.3-0.7-0.4-1.1c-0.1-0.4-0.2-0.7-0.2-1
		c0-0.4,0.1-0.8,0.3-1.1c0.2-0.3,0.4-0.6,0.7-0.8c0.3-0.2,0.6-0.4,1-0.5c0.4-0.1,0.8-0.2,1.2-0.2c0.7,0,1.4,0.2,1.8,0.5
		c0.5,0.3,0.7,0.8,0.7,1.3c0,0.5-0.2,0.8-0.5,1.1c-0.4,0.2-0.8,0.3-1.2,0.3c0.1-0.2,0.2-0.5,0.3-0.7c0.1-0.3,0.1-0.6,0.1-0.8
		c0-0.4-0.1-0.7-0.3-0.9c-0.2-0.3-0.6-0.4-1-0.4c-0.5,0-0.9,0.2-1.2,0.5c-0.3,0.3-0.4,0.7-0.4,1.2c0,0.4,0.1,0.8,0.2,1.2
		c0.1,0.4,0.3,0.7,0.5,1.1c0.2,0.4,0.3,0.8,0.5,1.1c0.1,0.4,0.2,0.8,0.2,1.3c0,0.4-0.1,0.7-0.2,1c-0.2,0.3-0.4,0.6-0.6,0.9
		c-0.3,0.3-0.6,0.5-0.9,0.7c-0.3,0.2-0.7,0.3-1,0.4l0.1,0.1c1-0.1,2-0.4,2.9-0.9c0.9-0.5,1.8-1.1,2.6-1.7c0.8-0.7,1.5-1.4,2.2-2.2
		c0.7-0.8,1.3-1.6,1.8-2.4L241.9,13z"></path>
	<path class="st1 oJKihyTx_18" d="M248.1,7.3l-2.2,3.3h3.7l-0.2,0.3h-3.8c-0.7,1.2-1.4,2.3-2,3.2c-0.6,0.9-1.1,1.7-1.5,2.3
		c-0.4,0.6-0.7,1.2-0.9,1.6c-0.2,0.4-0.3,0.8-0.3,1.2c0,0.4,0.1,0.6,0.4,0.7c0.2,0.1,0.5,0.2,0.8,0.2c0.7,0,1.4-0.3,2.2-0.8
		s1.6-1.1,2.4-1.9c0.8-0.7,1.6-1.5,2.3-2.4c0.7-0.8,1.3-1.6,1.8-2.3l0.2,0.1c-0.6,0.8-1.3,1.6-2.1,2.5c-0.8,0.9-1.5,1.7-2.3,2.4
		c-0.8,0.7-1.6,1.3-2.4,1.8c-0.8,0.5-1.6,0.7-2.3,0.7c-0.6,0-1.1-0.2-1.5-0.5c-0.4-0.4-0.6-0.8-0.6-1.5c0-0.4,0.1-0.9,0.4-1.4
		c0.2-0.5,0.6-1.1,1-1.7c0.4-0.6,0.8-1.3,1.3-2c0.5-0.7,1-1.5,1.5-2.3h-1.5l0.2-0.3h1.6l2.2-3.3H248.1z"></path>
	<path class="st1 oJKihyTx_19" d="M261.8,0.8l-9.9,14.7l0.1,0.1c0.4-0.5,0.8-1,1.3-1.6c0.5-0.6,1-1.2,1.6-1.7c0.6-0.5,1.2-1,1.9-1.4
		c0.7-0.4,1.3-0.6,2-0.6c1.1,0,1.7,0.6,1.7,1.7c0,0.3-0.1,0.7-0.3,1.1c-0.2,0.4-0.5,0.8-0.8,1.3c-0.3,0.5-0.7,0.9-1.1,1.4
		c-0.4,0.5-0.7,0.9-1.1,1.4c-0.3,0.4-0.6,0.9-0.8,1.2c-0.2,0.4-0.3,0.7-0.3,1c0,0.2,0.1,0.4,0.2,0.5c0.1,0.1,0.3,0.2,0.5,0.2
		c0.4,0,0.9-0.1,1.4-0.4c0.5-0.3,1-0.6,1.6-1.1c0.6-0.4,1.1-0.9,1.6-1.5c0.5-0.5,1-1.1,1.5-1.6c0.5-0.5,0.9-1,1.2-1.5
		c0.4-0.5,0.6-0.9,0.8-1.2l0.2,0.1c-0.2,0.4-0.5,0.8-0.9,1.3c-0.4,0.5-0.8,1-1.3,1.6s-1,1.1-1.5,1.7c-0.6,0.6-1.1,1-1.7,1.5
		c-0.6,0.4-1.1,0.8-1.6,1.1c-0.5,0.3-1,0.4-1.5,0.4c-0.5,0-0.9-0.1-1.2-0.4c-0.3-0.3-0.5-0.7-0.5-1.2c0-0.4,0.1-0.8,0.3-1.2
		c0.2-0.4,0.5-0.9,0.8-1.4c0.3-0.5,0.7-0.9,1-1.4c0.4-0.5,0.7-0.9,1.1-1.3c0.3-0.4,0.6-0.8,0.8-1.1c0.2-0.3,0.3-0.6,0.3-0.9
		c0-0.3-0.1-0.5-0.3-0.6c-0.2-0.1-0.4-0.2-0.6-0.2c-0.5,0-1,0.2-1.6,0.5c-0.6,0.3-1.2,0.8-1.8,1.4c-0.6,0.6-1.2,1.2-1.8,1.9
		c-0.6,0.7-1.2,1.4-1.7,2.1c-0.5,0.7-1,1.4-1.4,2c-0.4,0.6-0.7,1.2-0.9,1.6h-1.8c1-1.6,2.1-3.2,3.2-4.9c1.1-1.7,2.2-3.3,3.2-5
		s2.1-3.3,3.2-4.9c1-1.6,2-3.1,2.9-4.6L261.8,0.8z"></path>
	<path class="st1 oJKihyTx_20" d="M276,13c-0.3,0.5-0.6,1-1.1,1.5c-0.4,0.6-0.9,1.1-1.4,1.7c-0.5,0.6-1.1,1.1-1.7,1.6c-0.6,0.5-1.2,1-1.9,1.4
		c-0.7,0.4-1.3,0.7-2,1c-0.7,0.2-1.3,0.4-1.9,0.4c-0.8,0-1.4-0.2-1.8-0.6s-0.6-1-0.6-1.7c0-0.8,0.2-1.7,0.7-2.6
		c0.5-0.9,1.1-1.7,1.9-2.5c0.8-0.8,1.6-1.4,2.5-1.9c0.9-0.5,1.8-0.8,2.6-0.8c0.5,0,0.8,0.1,1.1,0.3c0.3,0.2,0.4,0.5,0.4,0.9
		c0,0.4-0.2,0.9-0.7,1.3c-0.5,0.4-1.1,0.8-1.8,1.1c-0.7,0.3-1.5,0.7-2.3,0.9c-0.8,0.3-1.5,0.5-2.1,0.6c-0.2,0.4-0.4,0.8-0.5,1.3
		c-0.1,0.5-0.2,0.9-0.2,1.4c0,0.2,0,0.4,0.1,0.7c0,0.2,0.1,0.4,0.2,0.6c0.1,0.2,0.2,0.3,0.4,0.4c0.2,0.1,0.4,0.2,0.7,0.2
		c0.6,0,1.3-0.2,2.2-0.6c0.8-0.4,1.7-0.9,2.5-1.6s1.7-1.4,2.5-2.3c0.8-0.9,1.5-1.7,2-2.7L276,13z M271.4,11.5c0-0.3-0.1-0.5-0.2-0.6
		c-0.1-0.1-0.3-0.2-0.5-0.2c-0.4,0-0.8,0.2-1.3,0.5c-0.5,0.3-0.9,0.7-1.4,1.1c-0.4,0.5-0.9,0.9-1.2,1.5c-0.4,0.5-0.6,1-0.8,1.4
		c0.4-0.1,0.9-0.2,1.5-0.4c0.6-0.2,1.2-0.5,1.8-0.8c0.6-0.3,1.1-0.7,1.5-1.1C271.2,12.4,271.4,12,271.4,11.5z"></path>
	<path class="st1 oJKihyTx_21" d="M282.1,7.3l-2.2,3.3h3.7l-0.2,0.3h-3.8c-0.7,1.2-1.4,2.3-2,3.2c-0.6,0.9-1.1,1.7-1.5,2.3
		c-0.4,0.6-0.7,1.2-0.9,1.6c-0.2,0.4-0.3,0.8-0.3,1.2c0,0.4,0.1,0.6,0.4,0.7c0.2,0.1,0.5,0.2,0.8,0.2c0.7,0,1.4-0.3,2.2-0.8
		c0.8-0.5,1.6-1.1,2.4-1.9c0.8-0.7,1.6-1.5,2.3-2.4c0.7-0.8,1.3-1.6,1.8-2.3l0.2,0.1c-0.6,0.8-1.3,1.6-2.1,2.5
		c-0.8,0.9-1.5,1.7-2.3,2.4c-0.8,0.7-1.6,1.3-2.4,1.8c-0.8,0.5-1.6,0.7-2.3,0.7c-0.6,0-1.1-0.2-1.5-0.5c-0.4-0.4-0.6-0.8-0.6-1.5
		c0-0.4,0.1-0.9,0.4-1.4c0.2-0.5,0.6-1.1,1-1.7c0.4-0.6,0.8-1.3,1.3-2c0.5-0.7,1-1.5,1.5-2.3h-1.5l0.2-0.3h1.6l2.2-3.3H282.1z"></path>
	<path class="st1 oJKihyTx_22" d="M289.6,10.6c-1,1.5-1.9,2.7-2.6,3.7c-0.7,1-1.3,1.8-1.7,2.5c-0.4,0.7-0.8,1.2-1,1.6c-0.2,0.4-0.3,0.7-0.3,1
		c0,0.5,0.2,0.7,0.6,0.7c0.4,0,0.8-0.1,1.3-0.4c0.5-0.3,1-0.6,1.6-1.1c0.5-0.4,1.1-0.9,1.6-1.5c0.5-0.5,1.1-1.1,1.5-1.6
		c0.5-0.5,0.9-1,1.3-1.5c0.4-0.5,0.6-0.9,0.8-1.2l0.2,0.1c-0.2,0.4-0.5,0.8-0.9,1.3c-0.4,0.5-0.8,1.1-1.3,1.6
		c-0.5,0.6-1,1.1-1.5,1.6c-0.5,0.5-1.1,1-1.7,1.5c-0.6,0.4-1.1,0.8-1.6,1c-0.5,0.3-1,0.4-1.5,0.4c-0.5,0-0.9-0.1-1.1-0.4
		c-0.2-0.3-0.4-0.6-0.4-0.9c0-0.4,0.1-0.8,0.3-1.2s0.5-1,0.9-1.6c0.4-0.6,0.9-1.4,1.5-2.3c0.6-0.9,1.4-2,2.3-3.3H289.6z M291.3,5.4
		c0.3,0,0.5,0.1,0.6,0.3c0.2,0.2,0.3,0.4,0.3,0.7c0,0.3-0.1,0.5-0.3,0.7c-0.2,0.2-0.4,0.3-0.6,0.3c-0.3,0-0.5-0.1-0.6-0.3
		c-0.2-0.2-0.3-0.4-0.3-0.7c0-0.3,0.1-0.5,0.3-0.7C290.8,5.5,291,5.4,291.3,5.4z"></path>
	<path class="st1 oJKihyTx_23" d="M303.6,13.2c-0.4,0.7-1,1.4-1.7,2.2c-0.7,0.8-1.5,1.5-2.3,2.2c-1,0.8-2,1.5-3,2s-2,0.8-3,0.8
		c-0.7,0-1.3-0.2-1.7-0.5c-0.5-0.4-0.7-0.9-0.7-1.6c0-0.9,0.3-1.8,0.8-2.7c0.5-0.9,1.2-1.8,1.9-2.6c0.8-0.8,1.6-1.4,2.5-1.9
		c0.9-0.5,1.8-0.7,2.6-0.7c0.5,0,1,0.1,1.4,0.3c0.4,0.2,0.6,0.5,0.6,1c0,0.2-0.1,0.4-0.2,0.6c-0.1,0.1-0.3,0.3-0.4,0.4
		c-0.2,0.1-0.4,0.2-0.6,0.2c-0.2,0-0.4,0.1-0.6,0.1c0.1-0.2,0.1-0.4,0.2-0.6c0.1-0.2,0.1-0.4,0.1-0.6c0-0.7-0.3-1-1-1
		c-0.5,0-1.1,0.2-1.7,0.7c-0.7,0.5-1.3,1.1-1.9,1.8c-0.6,0.7-1.1,1.5-1.5,2.4c-0.4,0.9-0.6,1.7-0.6,2.5c0,0.5,0.1,0.9,0.3,1.3
		c0.2,0.4,0.6,0.5,1.1,0.5c0.7,0,1.4-0.2,2.3-0.6c0.9-0.4,1.7-1,2.5-1.6c0.8-0.7,1.6-1.4,2.4-2.3c0.8-0.8,1.4-1.7,1.9-2.5
		L303.6,13.2z"></path>
	<path class="st1 oJKihyTx_24" d="M314.5,13c-0.6,0.9-1.2,1.8-1.9,2.7c-0.7,0.9-1.5,1.7-2.4,2.4c-0.9,0.7-1.8,1.3-2.9,1.7
		c-1,0.4-2.1,0.7-3.3,0.7c-0.4,0-0.9-0.1-1.3-0.2c-0.4-0.1-0.7-0.3-1-0.5s-0.5-0.5-0.7-0.9c-0.2-0.3-0.3-0.8-0.3-1.2
		c0-0.5,0.2-0.9,0.5-1.3c0.3-0.4,0.7-0.6,1.3-0.6c0.3,0,0.5,0.1,0.7,0.2c0.2,0.1,0.3,0.3,0.3,0.6c0,0.3-0.1,0.5-0.2,0.7
		c-0.1,0.2-0.3,0.3-0.6,0.3c-0.2,0-0.4-0.1-0.5-0.2c-0.1-0.1-0.2-0.3-0.2-0.4c-0.2,0.1-0.3,0.3-0.4,0.5c-0.1,0.2-0.1,0.4-0.1,0.7
		c0,0.7,0.2,1.1,0.7,1.5c0.5,0.3,1,0.5,1.7,0.5c0.4,0,0.7-0.1,1-0.2c0.3-0.2,0.5-0.4,0.7-0.6c0.2-0.3,0.3-0.5,0.4-0.9
		c0.1-0.3,0.1-0.7,0.1-1c0-0.4-0.1-0.7-0.2-1.1c-0.1-0.4-0.3-0.8-0.4-1.1c-0.1-0.4-0.3-0.7-0.4-1.1c-0.1-0.4-0.2-0.7-0.2-1
		c0-0.4,0.1-0.8,0.3-1.1c0.2-0.3,0.4-0.6,0.7-0.8s0.6-0.4,1-0.5c0.4-0.1,0.8-0.2,1.2-0.2c0.7,0,1.4,0.2,1.8,0.5
		c0.5,0.3,0.7,0.8,0.7,1.3c0,0.5-0.2,0.8-0.5,1.1c-0.4,0.2-0.8,0.3-1.2,0.3c0.1-0.2,0.2-0.5,0.3-0.7s0.1-0.6,0.1-0.8
		c0-0.4-0.1-0.7-0.4-0.9c-0.2-0.3-0.6-0.4-1-0.4c-0.5,0-0.9,0.2-1.2,0.5c-0.3,0.3-0.4,0.7-0.4,1.2c0,0.4,0.1,0.8,0.2,1.2
		c0.1,0.4,0.3,0.7,0.5,1.1c0.2,0.4,0.3,0.8,0.5,1.1c0.1,0.4,0.2,0.8,0.2,1.3c0,0.4-0.1,0.7-0.2,1c-0.2,0.3-0.4,0.6-0.6,0.9
		c-0.3,0.3-0.6,0.5-0.9,0.7c-0.3,0.2-0.7,0.3-1,0.4l0.1,0.1c1-0.1,2-0.4,2.9-0.9c0.9-0.5,1.8-1.1,2.6-1.7c0.8-0.7,1.5-1.4,2.2-2.2
		c0.7-0.8,1.3-1.6,1.8-2.4L314.5,13z"></path>
</g>
<style data-made-with="vivus-instant">.oJKihyTx_0{stroke-dasharray:258 260;stroke-dashoffset:259;animation:oJKihyTx_draw 4800ms ease-out 0ms forwards;}.oJKihyTx_1{stroke-dasharray:70 72;stroke-dashoffset:71;animation:oJKihyTx_draw 4800ms ease-out 8ms forwards;}.oJKihyTx_2{stroke-dasharray:116 118;stroke-dashoffset:117;animation:oJKihyTx_draw 4800ms ease-out 16ms forwards;}.oJKihyTx_3{stroke-dasharray:72 74;stroke-dashoffset:73;animation:oJKihyTx_draw 4800ms ease-out 25ms forwards;}.oJKihyTx_4{stroke-dasharray:73 75;stroke-dashoffset:74;animation:oJKihyTx_draw 4800ms ease-out 33ms forwards;}.oJKihyTx_5{stroke-dasharray:55 57;stroke-dashoffset:56;animation:oJKihyTx_draw 4800ms ease-out 41ms forwards;}.oJKihyTx_6{stroke-dasharray:92 94;stroke-dashoffset:93;animation:oJKihyTx_draw 4800ms ease-out 50ms forwards;}.oJKihyTx_7{stroke-dasharray:142 144;stroke-dashoffset:143;animation:oJKihyTx_draw 4800ms ease-out 58ms forwards;}.oJKihyTx_8{stroke-dasharray:62 64;stroke-dashoffset:63;animation:oJKihyTx_draw 4800ms ease-out 66ms forwards;}.oJKihyTx_9{stroke-dasharray:60 62;stroke-dashoffset:61;animation:oJKihyTx_draw 4800ms ease-out 75ms forwards;}.oJKihyTx_10{stroke-dasharray:72 74;stroke-dashoffset:73;animation:oJKihyTx_draw 4800ms ease-out 83ms forwards;}.oJKihyTx_11{stroke-dasharray:91 93;stroke-dashoffset:92;animation:oJKihyTx_draw 4800ms ease-out 91ms forwards;}.oJKihyTx_12{stroke-dasharray:69 71;stroke-dashoffset:70;animation:oJKihyTx_draw 4800ms ease-out 100ms forwards;}.oJKihyTx_13{stroke-dasharray:72 74;stroke-dashoffset:73;animation:oJKihyTx_draw 4800ms ease-out 108ms forwards;}.oJKihyTx_14{stroke-dasharray:78 80;stroke-dashoffset:79;animation:oJKihyTx_draw 4800ms ease-out 116ms forwards;}.oJKihyTx_15{stroke-dasharray:91 93;stroke-dashoffset:92;animation:oJKihyTx_draw 4800ms ease-out 125ms forwards;}.oJKihyTx_16{stroke-dasharray:72 74;stroke-dashoffset:73;animation:oJKihyTx_draw 4800ms ease-out 133ms forwards;}.oJKihyTx_17{stroke-dasharray:78 80;stroke-dashoffset:79;animation:oJKihyTx_draw 4800ms ease-out 141ms forwards;}.oJKihyTx_18{stroke-dasharray:69 71;stroke-dashoffset:70;animation:oJKihyTx_draw 4800ms ease-out 150ms forwards;}.oJKihyTx_19{stroke-dasharray:116 118;stroke-dashoffset:117;animation:oJKihyTx_draw 4800ms ease-out 158ms forwards;}.oJKihyTx_20{stroke-dasharray:72 74;stroke-dashoffset:73;animation:oJKihyTx_draw 4800ms ease-out 166ms forwards;}.oJKihyTx_21{stroke-dasharray:69 71;stroke-dashoffset:70;animation:oJKihyTx_draw 4800ms ease-out 175ms forwards;}.oJKihyTx_22{stroke-dasharray:55 57;stroke-dashoffset:56;animation:oJKihyTx_draw 4800ms ease-out 183ms forwards;}.oJKihyTx_23{stroke-dasharray:62 64;stroke-dashoffset:63;animation:oJKihyTx_draw 4800ms ease-out 191ms forwards;}.oJKihyTx_24{stroke-dasharray:78 80;stroke-dashoffset:79;animation:oJKihyTx_draw 4800ms ease-out 200ms forwards;}@keyframes oJKihyTx_draw{100%{stroke-dashoffset:0;}}@keyframes oJKihyTx_fade{0%{stroke-opacity:1;}95.65217391304348%{stroke-opacity:1;}100%{stroke-opacity:0;}}</style></svg>
